<?xml version="1.0" encoding="utf-8"?>
<!-- Generator: Adobe Illustrator 22.1.0, SVG Export Plug-In . SVG Version: 6.00 Build 0)  -->
<svg version="1.1" id="Layer_1" xmlns="http://www.w3.org/2000/svg" xmlns:xlink="http://www.w3.org/1999/xlink" x="0px" y="0px"
	 viewBox="0 0 574 186" style="enable-background:new 0 0 574 186;" xml:space="preserve">
<style type="text/css">
	.st0{fill:#FFFFFF;}
</style>
<g id="Layer_1_1_">
	<g>
		<path class="st0" d="M135.1,44.9l0.3-10.4c0-4.6-0.6-8-1.7-10.4c0.7-0.4,1.5-0.7,2.5-0.7c1.6,0,3.1,0.2,4.5,0.5s2.4,0.7,3.3,1.3
			c1.8,1.1,2.6,2.4,2.6,3.8s-0.7,2.7-2.1,3.9c-1.4,1.2-3.5,2.1-6.2,2.7l0.5,9c0,0.8-0.7,1.2-2.2,1.2c-0.5,0-0.9-0.1-1.2-0.3
			C135.2,45.4,135.1,45.1,135.1,44.9z M138.2,34.2c3.4-1.4,5-3,5-4.9l0,0c0-1.4-0.6-2.4-1.8-2.9c-0.7-0.3-2-0.8-3.9-1.4
			c0,1,0.1,2.5,0.3,4.6C138.1,31.7,138.2,33.2,138.2,34.2z"/>
		<path class="st0" d="M161.6,45.3c0,0.4-0.4,0.7-1.1,0.7c-0.6,0-1.1-0.2-1.7-0.5v-0.1c-0.1-0.5-0.5-1.3-1.1-2.2
			c-0.7-0.9-1.1-1.6-1.3-1.9c-0.2-0.3-0.4-1-0.8-1.9s-0.7-1.6-1-2.1v8c0,0.4-0.5,0.6-1.5,0.6c-0.4,0-0.7-0.1-0.9-0.2
			s-0.4-0.2-0.4-0.4v-0.2l0.3-11.9v-2.5c0-0.2,0.1-0.3,0.2-0.3s0.6-0.1,1.3-0.1c0.7,0,1.5,0.1,2.2,0.3c0.8,0.2,1.4,0.5,1.8,0.8
			c0.9,0.7,1.4,1.4,1.4,2.2c0,0.7-0.4,1.4-1.1,2.3c-0.1,0.1-0.3,0.3-0.5,0.6c-0.3,0.3-0.4,0.5-0.5,0.5c0,0.5,0.2,1.2,0.6,2
			s0.7,1.4,1.1,1.9s0.9,1.2,1.7,2.3s1.2,1.6,1.3,1.8V45.3z M154.4,31.2l-0.2,4.1c0,0.4,0,0.7,0,0.9c0.5-0.2,1-0.5,1.5-0.8l0.7-1.8
			c0-0.7-0.2-1.3-0.6-1.8C155.3,31.5,154.9,31.3,154.4,31.2z"/>
		<path class="st0" d="M170.2,38.3H169c-0.4,0-0.6,0-0.8,0.1v6.3c1.6,0,2.4-0.1,2.5-0.1c1.7,0,2.6,0.2,2.6,0.5v0.1
			c-0.2,0.2-0.6,0.3-1.1,0.4s-0.9,0.2-1.3,0.2s-0.9,0-1.5,0h-1.5c-1.2,0-1.9-0.1-2.2-0.3c-0.1-0.1-0.2-0.2-0.2-0.4V30.4l4-0.2
			c0.5,0,0.9,0.1,1.4,0.2s0.7,0.3,0.7,0.5c0,0.4-0.7,0.6-2.1,0.6h-1.3c-0.2,0-0.4,0-0.5,0l0.4,3.4c0,0.3,0,0.7-0.1,1.2
			s-0.1,0.9-0.1,1.1c0.2,0,0.4,0,0.7-0.1c0.6-0.1,1.1-0.1,1.5-0.1s0.7,0.1,1,0.2s0.4,0.2,0.4,0.4c0,0.2-0.1,0.3-0.3,0.4
			C170.9,38.2,170.6,38.3,170.2,38.3z"/>
		<path class="st0" d="M176,45.5c0-0.4,0.3-0.5,1-0.5c0.3,0,0.8,0.1,1.4,0.2s1.1,0.2,1.5,0.2s0.9-0.1,1.4-0.3
			c0.5-0.2,0.9-0.5,1.1-0.9c0.6-0.7,0.8-1.3,0.8-1.9s-0.2-1.2-0.7-1.8c-0.5-0.6-1-1.3-1.7-1.8c-0.7-0.6-1.3-1.1-2-1.7
			c-1.6-1.4-2.3-2.6-2.3-3.7s0.8-1.9,2.3-2.5c0.8-0.3,1.8-0.5,2.9-0.5c0.6,0,1.1,0.1,1.6,0.2s0.9,0.3,1.1,0.5v0.4
			c-1.3,0-2.2-0.1-2.6-0.2c-0.6,0-1.1,0.1-1.5,0.4c-0.8,0.4-1.2,0.9-1.2,1.4s0.2,1.1,0.5,1.6c0.3,0.6,0.8,1.1,1.2,1.6
			c0.5,0.5,1,0.9,1.5,1.4c0.5,0.4,0.9,0.8,1.3,1c0.3,0.3,0.5,0.4,0.5,0.4v0.2c0.1,0.2,0.3,0.4,0.5,0.8c0.3,0.4,0.5,0.7,0.6,0.9
			c0.4,0.6,0.6,1.1,0.6,1.6s-0.1,0.9-0.4,1.4c-0.3,0.4-0.6,0.8-1.1,1.2c-0.5,0.4-1.2,0.7-2,0.9c-0.8,0.2-1.6,0.4-2.3,0.4
			c-0.7,0-1.3,0-1.8,0s-1-0.1-1.5-0.2C176.2,45.8,176,45.6,176,45.5z"/>
		<path class="st0" d="M194.9,38.3h-1.2c-0.4,0-0.6,0-0.8,0.1v6.3c1.6,0,2.4-0.1,2.5-0.1c1.7,0,2.6,0.2,2.6,0.5v0.1
			c-0.2,0.2-0.6,0.3-1.1,0.4s-0.9,0.2-1.3,0.2s-0.9,0-1.5,0h-1.5c-1.2,0-1.9-0.1-2.2-0.3c-0.1-0.1-0.2-0.2-0.2-0.4V30.4l4-0.2
			c0.5,0,0.9,0.1,1.4,0.2s0.7,0.3,0.7,0.5c0,0.4-0.7,0.6-2.1,0.6h-1.3c-0.2,0-0.4,0-0.5,0l0.4,3.4c0,0.3,0,0.7-0.1,1.2
			s-0.1,0.9-0.1,1.1c0.2,0,0.4,0,0.7-0.1c0.6-0.1,1.1-0.1,1.5-0.1s0.7,0.1,1,0.2s0.4,0.2,0.4,0.4c0,0.2-0.1,0.3-0.3,0.4
			C195.5,38.2,195.2,38.3,194.9,38.3z"/>
		<path class="st0" d="M213.9,31.4l-0.2,7.5v6.2c0,0.3-0.3,0.6-0.9,0.7c-0.3,0.1-0.6,0.1-1,0.1c-0.3,0-0.6,0-0.8-0.1
			c-0.2,0-0.3-0.1-0.4-0.2s-0.2-0.1-0.2-0.2c-0.1-0.1-0.1-0.2-0.1-0.3c-0.2-0.5-0.7-1.5-1.7-3c-1.9-3-3.1-5.2-3.7-6.7
			c0,0,0-0.1-0.1-0.2c0-0.1,0-0.1,0-0.2s-0.1-0.3-0.2-0.4c0-0.3-0.1-0.6-0.4-1.1c-0.3-0.4-0.4-0.7-0.5-0.8v12.8H202v-0.4
			c0.1-0.1,0.1-0.3,0-0.6c-0.1-0.3-0.1-0.7-0.1-1.1s-0.1-1.4-0.3-3c-0.2-1.6-0.3-2.5-0.3-2.9v-2.6l0.3-3.7c0-0.5,0.1-0.8,0.2-0.8
			c0.4-0.1,0.8-0.2,1.2-0.2c0.4,0,0.7,0,1,0.1c0.5,0.1,0.8,0.3,0.8,0.5s0.1,0.4,0.2,0.7c0.1,0.2,0.3,0.5,0.5,0.7s0.4,0.5,0.5,0.6
			s0.2,0.3,0.2,0.5c0.1,0.2,0.1,0.4,0.1,0.5c0.1,0.5,0.2,0.9,0.4,1.3c0.2,0.4,0.5,0.9,0.9,1.7c0.5,0.7,0.9,1.4,1.3,1.9
			c1,1.4,1.6,2.7,1.7,3.9c0.2,0.2,0.4,0.4,0.5,0.7l0.1-7.1v-6c0.2-0.3,0.7-0.5,1.5-0.5s1.3,0.3,1.3,0.8v0.1
			C214,31,213.9,31.2,213.9,31.4z"/>
		<path class="st0" d="M224.4,33.9l-0.1,2.6c0,1.2,0.2,2.3,0.7,3.1l0,0c-0.2,0.4-0.3,0.9-0.3,1.5l0.4,3.6c0,0.7-0.4,1-1.3,1
			c-0.5,0-0.9-0.1-1.1-0.3c-0.2-0.2-0.4-0.4-0.4-0.7l0.4-3.2c0-0.7-0.1-1.8-0.3-3.2c-0.2-1.4-0.3-2.5-0.3-3.2l0.1-1.8
			c0-1-0.1-1.6-0.4-1.9l-2.5,0.1c-0.4,0-0.7-0.1-1.1-0.2c-0.3-0.1-0.5-0.2-0.5-0.4c0-0.2,0.4-0.3,1.1-0.4s1.6-0.2,2.7-0.3
			c1.9-0.1,3.4-0.1,4.7-0.1c0.4,0,0.7,0.1,1,0.2s0.5,0.2,0.5,0.4c0,0.2-0.1,0.3-0.4,0.4s-0.6,0.1-1,0.1h-1.7c-0.2,0-0.4,0-0.5,0
			C224.3,32.2,224.4,33,224.4,33.9z"/>
		<path class="st0" d="M236,38.3h-1.2c-0.4,0-0.6,0-0.8,0.1v6.3c1.6,0,2.4-0.1,2.5-0.1c1.7,0,2.6,0.2,2.6,0.5v0.1
			c-0.2,0.2-0.6,0.3-1.1,0.4s-0.9,0.2-1.3,0.2s-0.9,0-1.5,0h-1.5c-1.2,0-1.9-0.1-2.2-0.3c-0.1-0.1-0.2-0.2-0.2-0.4V30.4l4-0.2
			c0.5,0,0.9,0.1,1.4,0.2s0.7,0.3,0.7,0.5c0,0.4-0.7,0.6-2.1,0.6H234c-0.2,0-0.4,0-0.5,0l0.4,3.4c0,0.3,0,0.7-0.1,1.2
			s-0.1,0.9-0.1,1.1c0.2,0,0.4,0,0.7-0.1c0.6-0.1,1.1-0.1,1.5-0.1s0.7,0.1,1,0.2s0.4,0.2,0.4,0.4c0,0.2-0.1,0.3-0.3,0.4
			C236.6,38.2,236.4,38.3,236,38.3z"/>
		<path class="st0" d="M242.6,36l0.1-2.2c0-0.6-0.1-1.1-0.2-1.4s-0.3-0.5-0.5-0.8c-0.2-0.2-0.3-0.4-0.3-0.6c0-0.1,0.1-0.2,0.2-0.3
			s0.3-0.2,0.5-0.2s0.5-0.1,0.7-0.1s0.5-0.1,0.9-0.1c0.6,0,1,0,1.2,0h0.5c1.3,0,2.6,0.3,4.1,0.9c1.7,0.7,2.8,1.5,3.2,2.3
			c0.2,0.5,0.4,1,0.5,1.6s0.1,1,0.2,1.1c0.1,0.4,0.2,0.7,0.4,0.9V38c-0.2,0.1-0.2,0.3-0.2,0.6c0,1-0.5,2.1-1.6,3.4
			c-1.1,1.2-2.4,2.1-4,2.8c-1.2,0.5-2,0.7-2.4,0.8c-0.4,0.1-0.8,0.1-1.2,0.1c-0.4,0-0.8-0.1-1.3-0.2s-0.7-0.3-0.7-0.5
			c0.7-0.3,1-1.1,1-2.4c0-0.8-0.1-1.9-0.4-3.4S242.6,36.7,242.6,36z M245.7,42.6v1.9c2.4-0.7,4.1-2.1,5.1-4.1c0.5-1,0.7-2.1,0.7-3.2
			c0-3.8-2.1-5.7-6.4-5.7l0,0c0,1.3,0.1,3.1,0.3,5.6S245.7,41.4,245.7,42.6z"/>
		<path class="st0" d="M275.3,38.6c1.6-5.7,2.4-9.4,2.4-11.1V27c0-0.2,0.2-0.4,0.5-0.6c0.4-0.2,0.8-0.3,1.2-0.3
			c1.8,0,2.7,0.3,2.7,0.8v0.4c0,1.9,0.9,4.6,2.6,8.1c0.8,1.6,1.4,2.8,1.7,3.7c0.2-1.1,0.7-2.6,1.3-4.6c1.4-4.4,2-7.8,2-10.2
			c0-0.4,0.2-0.7,0.5-0.9c0.3-0.2,0.9-0.3,1.6-0.3s1.3,0.1,1.7,0.2s0.6,0.3,0.6,0.6s-0.2,0.5-0.7,0.7c-0.7,1.6-1.3,4-1.8,7.1
			s-1,5.3-1.5,6.6c-0.5,1.3-0.8,2.1-0.9,2.6c-0.6,1.6-0.8,3-0.8,4.2c0,0.3-0.2,0.5-0.5,0.7s-0.8,0.3-1.4,0.3s-1.1-0.2-1.5-0.5
			s-0.7-0.7-0.9-1.2c-0.2-0.5-0.4-1-0.5-1.5s-0.2-1-0.3-1.5c-0.1-0.5-0.2-1-0.4-1.6c-0.2-0.6-0.7-1.8-1.5-3.6
			c-0.9-1.8-1.4-2.9-1.5-3.2c-1.6,5.4-2.4,9.5-2.4,12.2c0,0.2-0.2,0.4-0.6,0.6s-0.8,0.2-1.3,0.2c-1.6,0-2.4-0.7-2.4-2.2
			c0-0.9-0.9-4.2-2.7-9.9c-1.8-5.7-3-8.8-3.5-9.4c0.6-0.5,1.3-0.7,2.3-0.7c1.3,0,2.2,0.7,2.8,2.2c0.3,0.7,0.4,1.5,0.5,2.5
			s0.1,1.7,0.2,2.1s0.2,0.9,0.4,1.7s0.4,1.4,0.6,2C274.3,35.7,274.8,37.1,275.3,38.6z"/>
		<path class="st0" d="M303.1,44.6h1c1.3,0,1.9,0.1,1.9,0.3c0.1,0.2,0.1,0.4-0.2,0.5s-0.6,0.1-1,0.1H299c-0.9,0-1.3-0.2-1.3-0.5
			s0.5-0.5,1.4-0.5h1.4c0.2,0,0.2-0.3,0.2-1s-0.1-2.1-0.4-4.1c-0.3-2.1-0.4-3.6-0.4-4.7l0.1-2.1c0-0.4,0-0.8-0.1-1.1
			c-0.4,0.1-0.8,0.1-1.1,0.1c-0.7,0-1.1-0.2-1.1-0.5c0-0.2,0.2-0.3,0.7-0.4s1.1-0.2,1.7-0.3c1.3-0.1,2.3-0.1,2.9-0.1
			s1.1,0.1,1.4,0.2s0.4,0.2,0.4,0.4c0,0.1-0.1,0.3-0.3,0.4c-0.2,0.1-0.5,0.2-0.8,0.2h-0.8c-0.3,0-0.5,0-0.7,0.1s-0.2,0.2-0.2,0.3
			c0,1.3,0.2,3.3,0.6,5.9s0.6,4.6,0.6,5.9v0.9H303.1z"/>
		<path class="st0" d="M315.2,33.9l-0.1,2.6c0,1.2,0.2,2.3,0.7,3.1l0,0c-0.2,0.4-0.3,0.9-0.3,1.5l0.4,3.6c0,0.7-0.4,1-1.3,1
			c-0.5,0-0.9-0.1-1.1-0.3c-0.2-0.2-0.4-0.4-0.4-0.7l0.4-3.2c0-0.7-0.1-1.8-0.3-3.2c-0.2-1.4-0.3-2.5-0.3-3.2l0.1-1.8
			c0-1-0.1-1.6-0.4-1.9l-2.5,0.1c-0.4,0-0.7-0.1-1.1-0.2c-0.3-0.1-0.5-0.2-0.5-0.4c0-0.2,0.4-0.3,1.1-0.4s1.6-0.2,2.7-0.3
			c1.9-0.1,3.4-0.1,4.7-0.1c0.4,0,0.7,0.1,1,0.2s0.5,0.2,0.5,0.4c0,0.2-0.1,0.3-0.4,0.4s-0.6,0.1-1,0.1h-1.7c-0.2,0-0.4,0-0.5,0
			C315.1,32.2,315.2,33,315.2,33.9z"/>
		<path class="st0" d="M328.5,37.6l-0.4-6.7c0-0.1,0.1-0.2,0.4-0.3c0.3-0.1,0.5-0.2,0.9-0.2c0.3,0,0.6,0.1,0.9,0.4
			c0.3,0.2,0.4,0.6,0.4,1.2c0,1.5,0.1,3.7,0.4,6.7c0.3,3,0.4,5.2,0.4,6.7c0,0.2-0.1,0.3-0.4,0.5c-0.3,0.2-0.6,0.2-1,0.2
			c-0.8,0-1.2-0.2-1.2-0.7c0-2.5-0.1-4.9-0.4-7.2c-0.8-0.1-1.6-0.1-2.3-0.1s-1.3,0.1-1.9,0.2c0,0.7,0.1,1.9,0.4,3.4s0.4,2.7,0.4,3.5
			c0,0.1-0.1,0.3-0.3,0.4c-0.2,0.1-0.4,0.2-0.7,0.2c-0.5,0-0.9-0.1-1.1-0.3c-0.2-0.2-0.4-0.7-0.5-1.4s-0.1-1.6-0.1-2.6
			c0-0.9,0-1.5-0.1-1.7c-0.6-3.5-0.8-6.5-0.8-9v-0.1c0-0.2,0.3-0.3,0.8-0.3c1,0,1.5,0.1,1.6,0.4c-0.1,0.5-0.2,1-0.2,1.5l0.3,4.2v0.8
			c0,0.2,0,0.4,0.1,0.5L328.5,37.6z"/>
		<path class="st0" d="M349.7,24.3l0.7,10.4c0,0.3,0,0.6-0.1,0.9v0.1c0.1,0.6,0.2,1.4,0.3,2.4c0.3,2.3,0.5,4,0.5,5.2v0.9h4.7
			c0.7,0.2,1.2,0.3,1.3,0.4s0.2,0.2,0.2,0.4c0,0.2-0.2,0.3-0.5,0.5s-0.7,0.2-1,0.2s-0.7,0-1.2-0.1c-0.4,0-0.8,0.1-1.3,0.1h-2.1
			c-0.5,0.2-1,0.4-1.7,0.4s-1.3-0.1-1.7-0.3c-0.5-0.2-0.7-0.4-0.7-0.6l0.4-1.3c0-2.2-0.2-5.5-0.7-9.9c-0.4-4.4-0.7-7.7-0.7-9.9
			c0-0.2,0.2-0.3,0.5-0.4s0.7-0.2,1.2-0.2s0.9,0.1,1.3,0.2C349.5,23.9,349.7,24.1,349.7,24.3z"/>
		<path class="st0" d="M372.5,39.6l-0.4,2.6v0.1c-0.2,0.4-0.3,0.8-0.3,1.2s-0.2,0.9-0.5,1.3s-0.9,0.8-1.6,1.1
			c-0.7,0.3-1.5,0.5-2.3,0.5s-1.6-0.1-2.3-0.4s-1.3-0.6-1.7-1s-0.8-0.9-1.2-1.4c-0.3-0.5-0.6-1.1-0.8-1.6s-0.3-1.1-0.5-1.6
			c-0.2-0.9-0.2-1.6-0.2-2.2s0-1,0.1-1.4c0.1-0.7,0.1-1.3,0.2-1.8c0.1-0.5,0.1-0.9,0.1-1.2c0-0.3,0-0.5,0-0.7s0.1-0.4,0.1-0.7
			c0.1-0.3,0.2-0.5,0.3-0.7s0.3-0.4,0.5-0.6s0.5-0.4,0.8-0.5c0.7-0.3,1.5-0.5,2.3-0.5c0.9,0,1.6,0,2.1,0.1s0.9,0.2,1.3,0.3
			c0.4,0.1,0.7,0.3,1,0.5s0.5,0.4,0.7,0.6s0.4,0.4,0.5,0.6c0.2,0.3,0.4,0.8,0.6,1.4C372.1,35.7,372.5,37.8,372.5,39.6z M368.4,32.2
			c-0.3-0.3-0.7-0.6-1.1-0.8c-0.4-0.2-0.9-0.3-1.3-0.3c-0.4,0-0.8,0-1,0.1c-0.3,0.1-0.5,0.2-0.7,0.4s-0.3,0.4-0.5,0.6
			s-0.3,0.5-0.4,0.8s-0.2,0.6-0.3,0.8c-0.1,0.2-0.1,0.5-0.2,0.9c0,0.3-0.1,0.6-0.1,0.8s0,0.5-0.1,0.8c0,0.3,0,0.5,0,0.6v0.4
			c0,1.1,0.2,2.3,0.7,3.7c0.9,2.8,2.3,4.2,4,4.2c0.6,0,1.1-0.3,1.5-0.8s0.7-1.1,0.9-1.9c0.3-1.3,0.5-2.2,0.5-2.8c0-0.6,0-1,0-1.2
			c0-0.3,0-0.6-0.1-1.1c0-0.5-0.1-0.9-0.2-1.3c-0.1-0.4-0.2-0.9-0.3-1.4s-0.3-1-0.6-1.4S368.7,32.5,368.4,32.2z"/>
		<path class="st0" d="M387.2,30.2h1c-0.2,0.9-0.8,2.8-1.7,5.8s-1.4,4.9-1.6,5.8c-0.2,0.9-0.3,1.5-0.3,1.9s0,0.6-0.1,0.9
			c0,0.2-0.1,0.5-0.2,0.8c-0.2,0.6-0.7,0.8-1.4,0.8c-0.4,0-0.8-0.1-1.1-0.2c-0.7-1.3-1.8-3.9-3.2-7.7c-1.4-3.9-2.4-6.4-3-7.5
			c0.2-0.3,0.6-0.4,1.4-0.4c0.3,0,0.6,0,0.7,0.1s0.2,0.1,0.3,0.2c0.1,0,0.1,0.1,0.2,0.2c0,0.1,0.1,0.1,0.1,0.2s0,0.1,0.1,0.2
			s0.1,0.3,0.3,0.7s0.5,1.4,1,2.9c1.1,3.4,2.1,5.9,2.9,7.7c0.2-0.8,0.6-2,1.1-3.7c1.1-3.5,1.7-6.2,1.7-8.1
			C386,30.3,386.6,30.2,387.2,30.2z"/>
		<path class="st0" d="M396.9,38.3h-1.2c-0.4,0-0.6,0-0.8,0.1v6.3c1.6,0,2.4-0.1,2.5-0.1c1.7,0,2.6,0.2,2.6,0.5v0.1
			c-0.2,0.2-0.6,0.3-1.1,0.4s-1,0.2-1.3,0.2c-0.4,0-0.9,0-1.5,0h-1.5c-1.2,0-1.9-0.1-2.2-0.3c-0.1-0.1-0.2-0.2-0.2-0.4V30.4l4-0.2
			c0.5,0,0.9,0.1,1.4,0.2s0.7,0.3,0.7,0.5c0,0.4-0.7,0.6-2.1,0.6h-1.3c-0.2,0-0.4,0-0.5,0l0.4,3.4c0,0.3,0,0.7-0.1,1.2
			s-0.1,0.9-0.1,1.1c0.2,0,0.4,0,0.7-0.1c0.6-0.1,1.1-0.1,1.5-0.1s0.7,0.1,1,0.2s0.4,0.2,0.4,0.4c0,0.2-0.1,0.3-0.3,0.4
			C397.5,38.2,397.3,38.3,396.9,38.3z"/>
		<path class="st0" d="M414,25.9c0-1.3,0.8-1.9,2.5-1.9c2,0,3.8,0.2,5.3,0.6c3,0.8,4.5,2.2,4.5,4.1c0,1.5-1.4,3-4.1,4.7
			c1.9,1.2,3,1.8,3.4,2.1c0.4,0.2,0.8,0.4,1.1,0.6s0.5,0.4,0.5,0.4c0,0.1,0.1,0.2,0.2,0.4c0.1,0.2,0.2,0.5,0.2,0.6
			c0,0.5,0.1,1,0.3,1.6s0.3,1,0.4,1.1c0.1,0.1,0,0.3-0.2,0.7c-0.2,0.4-0.4,0.7-0.5,0.8c-0.1,0.1-0.2,0.3-0.4,0.6
			c-0.2,0.2-0.3,0.4-0.4,0.5c-0.1,0.1-0.3,0.3-0.5,0.5s-0.4,0.3-0.6,0.4c-0.2,0.1-0.4,0.2-0.7,0.4c-0.3,0.2-0.6,0.3-0.9,0.4
			c-0.3,0.1-0.7,0.2-1.1,0.3c-1.4,0.4-2.6,0.7-3.6,0.8c-1.1,0.1-1.7,0.2-1.8,0.2h-0.3c-1.2,0-2,0-2.3-0.1c-0.6-0.2-0.9-0.4-0.9-0.6
			l0.3-7.1l-0.5-11.8L414,25.9L414,25.9z M418.5,25.6c-0.6,0-0.9,0.3-0.9,1s0,1.8,0.1,3.3s0.1,2.6,0.1,3.2c1.6-0.2,2.9-1,4.1-2.5
			c0.6-0.8,1-1.3,1.2-1.5v-1c0-0.6-0.5-1.1-1.4-1.7C420.8,25.9,419.7,25.6,418.5,25.6z M420.1,34.6L420.1,34.6h-2.3
			c0.2,2.4,0.3,5.7,0.3,9.9c2.1-0.2,3.8-0.6,5.1-1.3c1.2-0.7,1.8-1.6,1.8-2.6C425,37.2,423.4,35.3,420.1,34.6z"/>
		<path class="st0" d="M438.9,43.9v1v0.5c0,0.2-0.1,0.3-0.4,0.4c-0.3,0.1-0.6,0.2-0.9,0.2s-0.6,0-0.9-0.1c-0.2-0.1-0.4-0.2-0.4-0.4
			l0.2-3.9c0-0.4-0.1-1-0.4-1.8c-0.3-0.8-0.4-1.4-0.4-1.9s-0.2-1-0.6-1.7c-0.4-0.7-0.8-1.3-1.2-1.8c-1.2-1.4-1.8-2.6-1.8-3.6
			c0-0.2,0.5-0.3,1.5-0.3c0.2,0,0.5,0,0.7,0.1s0.4,0.2,0.4,0.3c0.3,1.6,1.1,3.2,2.3,5c0.1-0.1,0.1-0.4,0.2-0.8
			c0.1-0.4,0.2-0.9,0.3-1.4s0.3-0.9,0.4-1.4c0.4-1.1,1-1.6,1.9-1.6c0.8,0,1.2,0.1,1.2,0.2c0,0.8-0.4,1.9-1.1,3.4
			c-0.7,1.5-1.1,2.6-1.1,3.4l0.1,0.7v0.3V43.9z"/>
	</g>
</g>
<g id="Layer_2_1_">
	<g>
		<g>
			<path class="st0" d="M123.3,59c1.8,1.2,2.3,2.7,1.7,4.9c-0.1,0.5-0.2,1-0.2,1.5c-0.2,12.6-0.3,25.3-0.5,37.9
				c-0.1,9.3-0.2,18.6-0.3,27.9c0,2.7-0.1,5.4-0.3,8.1c-0.2,1.7-0.4,3.5-1.1,5.1c-0.3,0.8-1.5,1.6-2.4,1.6c-0.7,0-1.5-1.1-1.9-1.9
				s-0.5-1.8-0.7-2.7c-2.5-13-5-26-7.5-39.1c-1.2-6.3-2.3-12.6-3.5-18.9c-0.5-2.5-1-4.9-1.8-7.3c0,1.2,0,2.3,0,3.5
				c-0.3,19.3,0.2,38.5,0.9,57.8c0.1,1.9,0.1,3.8,0,5.6c-0.1,2.4-1.3,3.8-3.6,3.7c-0.4,0-1-0.4-1-0.8c-0.2-1.1-0.3-2.2-0.4-3.2
				c-0.1-6,0-12-0.1-18c-0.2-12.8-0.5-25.7-0.6-38.5c0-6.3,0.3-12.5,0.5-18.8c0-1.1,0-2.3,0-3.4c0-1.8,0.8-2.8,2.4-3.1
				c1.7-0.3,3.4,0.5,3.8,2c1.1,3.9,2.6,7.9,3.1,11.9c1.5,12,5.2,23.4,7.2,35.3c0.6,3.6,1.2,7.3,1.8,11c0.1,0.3,0.2,0.6,0.5,0.9
				c0-0.5,0.1-1,0.1-1.5c0-15.5,0.1-31,0.1-46.5c0-4.1,0-8.2-0.1-12.2c0-1.6,1.2-2,2.2-2.7C122.2,59,122.8,59,123.3,59z"/>
			<path class="st0" d="M476.2,59c1.8,1.3,2.3,2.7,1.7,4.9c-0.1,0.5-0.2,1-0.3,1.5c-0.2,12.8-0.4,25.6-0.7,38.4
				c-0.2,9.5-0.6,19-1,28.5c-0.1,2.7-0.3,5.4-0.5,8.1c-0.2,1.6-0.4,3.2-0.9,4.7c-0.3,0.7-1.3,1.5-2.1,1.5c-0.7,0-1.8-0.8-2.1-1.5
				c-0.6-1.5-0.8-3.1-1.1-4.7c-1.6-9.6-3.1-19.2-4.7-28.7c-1.6-9.5-3.4-18.9-5.2-28.3c-0.4-2.4-0.9-4.8-1.8-7.2c0,1.2,0,2.3,0,3.5
				c0,18.6,0.1,37.2,0.1,55.8c0,1.6,0,3.1-0.1,4.7c-0.2,2.3-1.2,3.1-3.4,2.7c-0.5-0.1-1.1-0.6-1.2-1.1c-0.2-1.3-0.2-2.6-0.2-3.9
				c0.1-6.5,0.2-13.1,0.2-19.6c-0.1-17.4-0.5-34.9,0.6-52.3c0-0.6-0.1-1.3-0.1-1.9c0-2,0.8-3,2.7-3.2s3.3,0.9,3.8,2.6
				c0.6,2.4,1.3,4.8,2,7.2c0.3,1.2,0.8,2.4,0.9,3.6c0.9,8.9,3.3,17.4,5,26.1c1.3,6.9,2.3,13.9,3.4,20.8c0,0.3,0.1,0.6,0.5,0.9
				c0-0.5,0.1-0.9,0.1-1.4c0.2-15.5,0.5-30.9,0.7-46.4c0.1-4.3,0-8.6,0-12.9c0-1.5,1.2-1.9,2.2-2.5C475.1,59,475.6,59,476.2,59z"/>
			<path class="st0" d="M82.7,99.8c0.3,2.4,0.9,4.7,0.9,7.1c0.3,12.2,0.6,24.3,0.8,36.5c0,1.8-0.1,3.6-1.3,5
				c-1.3,1.6-2.8,1.5-3.7-0.3c-0.5-1.1-0.7-2.3-0.7-3.5c-0.1-6,0-12.1,0-18.1c0-0.6-0.7-1.5-1.2-1.7c-2.4-0.6-4.9-1-7.3-1.5
				c-1.1-0.2-1.2,0.6-1.3,1.3c-0.5,3.9-0.9,7.8-1.4,11.7c-0.5,4.1-1,8.2-1.6,12.3c-0.1,0.7-0.8,1.8-1.1,1.7c-0.9,0-2-0.4-2.6-1
				c-1-1.1-1.2-2.5-0.9-4.2c1-5.5,1.8-11.1,2.5-16.7c2.2-19,4.4-38,8.2-56.7c0.5-2.7,1.4-5.3,2.3-8c0.5-1.4,1.2-2.6,3.1-2.3
				c1.8,0.2,2.5,1.4,2.7,3c0.6,5.8,1.1,11.6,1.7,17.5c0.5,4.8,1,9.5,1.4,14.3c0.1,1.2,0,2.4,0,3.6C83,99.8,82.8,99.8,82.7,99.8z
				 M76.4,75.7c-0.2,0-0.4,0-0.6,0c-0.2,0.8-0.4,1.7-0.5,2.5c-1.1,8.2-2.2,16.3-3.4,24.5c-0.6,4-1.3,8-2,12c-0.2,1.4,0.3,2,1.6,2.1
				c1.8,0.2,3.5,0.3,5.3,0.4c1.4,0.1,2-0.5,2-2c-0.3-6.9-0.3-13.9-0.7-20.8C77.7,88.1,77,81.9,76.4,75.7z"/>
			<path class="st0" d="M33.2,94.9c2.8-0.3,5.3-0.6,7.9-0.9c0-0.6,0-1.1,0-1.7c-0.2-9.2-0.4-18.5-0.7-27.7c0-0.6-0.1-1.3,0-1.9
				s0.3-1.6,0.6-1.6c0.8-0.1,1.9,0,2.3,0.5c0.8,1,1.4,2.2,1.5,3.4c0.3,4.3,0.3,8.7,0.4,13c0.3,23.1,0.6,46.2,1.1,69.2
				c0.1,2.9,0.5,5.7-0.4,8.5c-0.2,0.7-0.5,1.5-0.9,2.2c-0.3,0.5-1,1.2-1.3,1.1c-0.5-0.1-1.1-0.7-1.4-1.3c-0.4-0.7-0.6-1.6-0.6-2.4
				c-0.1-2.1,0-4.2-0.1-6.3c-0.2-15.8-0.4-31.6-0.5-47.5c0-0.4-0.1-0.8-0.2-1.7c-1.9,0.1-3.8,0.2-5.7,0.3c-1.2,0.1-1.7,0.8-1.6,2.1
				c0.3,7.8,0.6,15.7,0.8,23.5c0.2,8.6,0.3,17.2,0.5,25.8c0,1.1-0.1,2.3-0.4,3.4c-0.3,0.9-1.1,2-1.8,2.2c-1.2,0.3-1.7-1.1-1.9-2.1
				c-0.3-1.4-0.5-2.9-0.5-4.3c-0.2-8.4-0.2-16.8-0.4-25.2c-0.4-17.1-1-34.2-1.5-51.4c-0.1-3.7-0.1-7.4-0.1-11.1c0-1,1.4-2.3,2.5-2.3
				c0.8,0,2.2,1.6,2.2,2.4c0.1,7.6,0.2,15.1,0.2,22.7c0,2,0,4,0,5.9C33.2,92.9,33.2,93.8,33.2,94.9z"/>
			<path class="st0" d="M162.8,102.3c-0.3,4.8-0.5,9.6-0.8,14.4c-0.4,5-0.7,10.1-1.5,15.1c-0.4,2.6-1.8,5.1-2.8,7.6
				c-0.4,1-1.1,1.9-1.8,2.7c-2.1,2.3-4.8,2.4-6.8,0c-1.3-1.6-2.4-3.5-3.2-5.5c-2.3-5.9-3.2-12.2-4-18.5c-1.7-13.4-1.9-26.9-0.8-40.3
				c0.3-3.2,0.4-6.5,0.8-9.7c0.1-0.9,0.4-1.8,0.7-2.7c1-2.9,2.9-4.9,6-5.2c3.3-0.4,6,0.4,8.3,3.2c2.9,3.5,3.5,7.5,3.9,11.7
				c0.9,9.1,1.6,18.2,2.4,27.3C163.1,102.3,162.9,102.3,162.8,102.3z M158,101c0.1,0,0.3,0,0.4,0c-0.5-7.5-0.9-15-1.6-22.5
				c-0.4-3.8-1.1-7.6-3-11c-0.9-1.5-1.8-3.1-3.9-2.9c-1.9,0.2-2.5,1.9-2.8,3.4c-0.8,3.9-1.6,7.8-1.9,11.7
				c-0.8,11.8-0.3,23.6,1.2,35.3c0.7,5.7,1.3,11.5,3.3,17c0.4,1.2,1,2.4,1.8,3.5c0.8,1.2,1.9,1.1,2.6-0.2c0.6-1.2,1.1-2.6,1.4-4
				C157.6,121.3,158,111.2,158,101z"/>
			<path class="st0" d="M512.5,149.2c-0.5,0.6-1,1.1-1.4,1.6c-0.9,1-2,1.3-3.3,1.5c-5.2,0.8-7.2-3.2-9.5-6.4
				c-2.9-4.2-3.7-9.2-4.1-14.1c-1.3-17-1.5-34-0.4-51c0.3-5,1.2-10,3.8-14.4c2.2-3.8,5.4-6,9.9-6.2c0.9,0,1.8,0.1,2.6,0.4
				c1.2,0.4,1.8,1.5,1.5,2.7c-0.3,1.4-1.4,1.7-2.6,1.6c-1-0.1-2-0.4-2.9-0.3c-2.3,0.3-3.7,1.9-4.3,3.9c-1.1,3.7-2.3,7.5-2.5,11.2
				c-0.7,12.3-1.1,24.6-1.2,36.9c0,7.5,0.6,14.9,3.6,22c0.9,2.2,2.3,3.8,4.7,4.5c1.6,0.4,3,0.1,4.1-1.2c1.5-1.9,2.7-3.9,2.6-6.5
				c-0.2-4-0.3-7.9-0.4-11.9c0-1.5-0.6-2.1-2.3-1.9c-2.5,0.4-3.7-0.5-4.2-2.7c-0.5-2.3,0.5-4,2.8-4.7c1.2-0.3,2.4-0.6,3.7-0.7
				c2.2-0.2,3.5,0.8,4.1,3c0.2,0.7,0.3,1.4,0.3,2.2c0.3,9.5,0.6,19.1,0.8,28.6c0,1.2-0.1,2.4-0.5,3.5c-0.3,0.7-1.1,1.7-1.7,1.7
				c-0.7,0-1.6-0.8-2.2-1.4C513,150.7,512.8,149.9,512.5,149.2z"/>
			<path class="st0" d="M396,94c0,0.4-0.1,0.8-0.1,1.2c-0.2,11.7-0.3,23.5-0.5,35.2c0,1.5,0.1,3,0,4.5c-0.1,2.1-1.2,3.4-2.6,3.3
				c-1.5-0.1-2.6-1.8-2.5-3.8c0.3-10.6,0.7-21.3,0.9-31.9c0.2-12.4,0.2-24.8,0.4-37.1c0-0.7,0-1.4-0.1-2c-0.1-1.9,0.5-2.6,2.5-2.7
				c4.1-0.2,7.3,2.2,8.9,6.3c2.2,6,2.5,12-0.1,17.9c-2,4.5-2.1,9-1.1,13.7c2.4,11.4,4.6,22.8,6.8,34.3c0.3,1.7,0,3.6-0.4,5.4
				c-0.5,1.8-2.2,2.1-3.3,0.5c-0.7-0.9-1.4-2.1-1.5-3.2c-0.4-6.6-2.2-13-3.4-19.4c-1.2-6.5-2.1-13-3.2-19.5
				c-0.1-0.9-0.3-1.7-0.5-2.6C396.3,94,396.2,94,396,94z M396.1,65.7c0,7.2,0,14,0,20.9C400.7,82.5,400.9,69.3,396.1,65.7z"/>
			<path class="st0" d="M249.5,93.5c0,0.2-0.1,0.5-0.1,0.7c0,12.5,0,25.1-0.1,37.6c0,0.9-0.1,1.9-0.5,2.6s-1.4,1.5-2.1,1.4
				c-0.7,0-1.6-0.8-2.1-1.5c-0.4-0.4-0.4-1.2-0.4-1.8c0.2-11.1,0.5-22.2,0.6-33.3c0.1-11.3,0.1-22.6,0.2-33.8c0-0.6,0-1.3,0-1.9
				c-0.1-2.1,0.5-2.8,2.7-2.9c4.1-0.1,7.2,2.2,8.7,6.3c2.1,5.8,2.4,11.6,0.1,17.4c-0.2,0.4-0.2,0.8-0.4,1.2c-2,3.7-1.8,7.5-0.9,11.4
				c2.5,10.8,5,21.7,7.3,32.5c0.3,1.6,0.1,3.4-0.3,5c-0.5,1.8-2.2,2-3.4,0.6c-0.6-0.8-1.2-1.8-1.4-2.7c-1.2-5.4-2.2-10.8-3.3-16.3
				c-1.3-6.9-2.5-13.9-3.8-20.8c-0.1-0.6-0.3-1.3-0.4-1.9C249.7,93.5,249.6,93.5,249.5,93.5z M249.5,86.5c4.6-4.3,4.7-18.9,0-20.5
				C249.5,72.9,249.5,79.6,249.5,86.5z"/>
			<path class="st0" d="M189.9,111.9c0.1-1,0.2-2,0.3-3c1.5-14.5,2.9-29.1,4.4-43.6c0.1-1.4-0.3-3.1,1.5-3.8
				c0.8-0.3,1.9-0.6,2.6-0.4c1,0.4,1.8,1.2,1.6,2.7c-0.8,5.4-1.8,10.8-2.3,16.3c-1.7,18-3.2,36-4.8,54c-0.1,1.1-0.5,2.2-0.9,3.3
				c-0.4,1-1.1,1.8-2.4,1.5c-1.3-0.2-1.8-1-1.9-2.2c-1.6-12.5-3.1-25.1-4.8-37.6c-1.5-10.7-3.2-21.4-4.9-32
				c-0.1-0.9-0.4-1.9-0.8-2.7c-0.6-1.3-0.3-2.2,0.8-2.9c1.2-0.7,2.8-0.5,3.5,0.7c0.5,0.8,0.8,1.8,1,2.8c1.3,8.7,2.6,17.4,3.9,26.2
				c1,7,1.9,13.9,2.8,20.9C189.6,111.9,189.7,111.9,189.9,111.9z"/>
			<path class="st0" d="M545.5,120.3c0.3-8.6-2.8-18.7-6.8-28.5c-2.1-5.2-3.7-10.5-4.2-16.2c-0.4-4.9,0.2-9.5,3.8-13.2
				c2.8-2.8,6.6-3.2,9.5-0.9c1.3,1.1,1.6,2.2,0.5,3.3c-0.6,0.5-1.9,0.5-2.8,0.3c-2.1-0.5-3-0.5-4,1.4c-0.8,1.4-1.5,3-1.7,4.6
				c-0.6,4.4,0.5,8.7,1.8,12.9c1.1,3.4,2.2,6.8,3.6,10c2.9,6.2,3.8,12.9,4.8,19.5c1.7,11.4,0.5,22.5-2.8,33.4
				c-1,3.3-2.6,6.5-4.4,9.4c-2.3,3.6-7.1,3.4-9.6-0.2c-1.5-2.2-2.1-4.7-1.5-7.5c0.5-2.5,1.8-2.9,3.7-1.4c0.6,0.5,1.2,1.1,1.9,1.6
				c1.1,0.9,2.2,0.9,2.9-0.4c0.9-1.7,1.8-3.4,2.3-5.3C544.5,136.5,545.5,129.5,545.5,120.3z"/>
			<path class="st0" d="M220.3,66.8c0,8.1,0,16.2,0,24.5c1-0.2,2-0.3,2.9-0.5c1.2-0.3,2.4,0.1,2.8,1.1c0.4,0.9,0.5,2.2,0.3,3.2
				c-0.2,1.1-1.3,1.4-2.5,1.4c-3.6,0-3.4,0-3.4,3.5c0.1,8.3,0,16.6,0,24.9c0,1.4,0.3,2.9,0.4,4.5c1.2-0.1,2.2-0.3,3.2-0.3
				c1.1,0,2.3-0.1,3.4,0.2c2.1,0.5,2.9,2.6,1.8,4.4c-0.9,1.6-2.4,2.5-4.2,2.7c-2.3,0.3-4.6,0.4-6.9,0.4c-2.5,0-3.8-1.6-3.6-4.1
				c1.2-13.1,0.7-26.3,0.6-39.4c-0.1-5.7,0.3-11.4,0.2-17.1c0-3.2-0.6-6.4-0.9-9.6c-0.3-2.6,1.3-4.8,3.8-5c2.1-0.2,4.2-0.3,6.3-0.2
				c1.4,0,2.1,1,2.2,2.4c0.1,1.5-0.7,2.5-2.1,2.7C223.5,66.7,221.8,66.7,220.3,66.8z"/>
			<path class="st0" d="M339.2,114.9c-0.1-7.3-2.4-14.1-5.5-20.6c-2.4-5-4.9-10.1-5.9-15.6c-0.7-3.9-1-7.9,0.4-11.7
				c0.8-2.2,2.1-4.1,4-5.5c2.5-1.9,5.5-2,8-0.3c0.9,0.6,1.9,1.3,1.3,2.8c-0.6,1.6-1.7,1.4-2.9,1.2c-0.3,0-0.5-0.1-0.7-0.2
				c-1.3-0.8-2.3-0.1-3.2,0.8c-1.8,1.8-2.3,4.1-2.4,6.6c0,5.2,1.5,10.1,3.5,14.8c0.9,2.1,1.9,4.2,2.9,6.2c3.7,7.6,5.5,15.6,5.4,24
				c0,5.2-1.3,10.3-4.1,14.8c-0.9,1.5-2.2,2.9-3.6,4c-2.4,1.9-5.1,1.6-7.8,0.7c-1.9-0.7-3.2-2.9-2.9-4.6c0.3-1.8,1.3-2.4,3-1.9
				c0.7,0.2,1.4,0.6,2.1,0.9c1.9,0.9,2.8,0.7,4-1c0.8-1,1.4-2.2,1.8-3.4c0.7-2,1.1-4,1.5-6.1C338.8,118.9,338.9,116.9,339.2,114.9z"
				/>
			<path class="st0" d="M427,66.7c-0.6,0.1-1,0.1-1.4,0.2c-1.1,0.2-1.9-0.1-2.3-1.1c-0.4-1.1-0.3-2.1,0.7-2.8
				c0.3-0.2,0.7-0.5,1.1-0.6c2.7-0.5,5.4-1.2,8.1-1.5c1.8-0.2,2.9,0.8,3.1,2.2c0.2,1.8-0.8,2.8-2.7,2.7c-2.1,0-2.2,0-2.2,2.1
				c0.2,8.8,0.5,17.5,0.7,26.3c0.2,12,0.3,24,0.5,36c0,0.5,0,0.9,0,1.3c0.2,0.1,0.3,0.2,0.4,0.2c3.5,0.2,4.8,1.9,4.6,5.4
				c-0.2,2-2.2,3.4-4,2.7c-0.9-0.4-1.6-0.4-2.5,0.4c-0.5,0.4-1.8,0.1-2.7-0.1c-0.8-0.2-1.6-0.7-2.4-1c-1.5-0.5-2.8-1.2-3.4-2.8
				c-1-2.4,0.4-4.4,3-4.2c2.2,0.1,2.3,0.1,2.3-2.1c-0.1-12.2-0.3-24.4-0.5-36.6c-0.1-8.1-0.2-16.2-0.3-24.3
				C427,68.4,427,67.6,427,66.7z"/>
			<path class="st0" d="M298.2,93c0,2,0.1,3.7,0,5.4c0,0.5-0.6,0.9-0.9,1.4c-0.4-0.4-1.1-0.7-1.2-1.2c-0.3-1.4-0.3-2.8-0.4-4.2
				c0-0.6,0-1.2,0-1.9c-1,0-1.8,0-2.7,0c0,1.9,0.1,3.6,0,5.4c0,0.7-0.6,1.3-0.9,1.9c-0.5-0.6-1.4-1.1-1.5-1.7
				c-0.3-1.6-0.3-3.2-0.5-4.8c-3.6,1.3-4.3,5.8-1.3,8.4c0.9,0.8,2.1,1.4,3.2,1.8c2.9,1.2,5.8,2.1,8.6,3.3c1.7,0.7,3.4,1.5,4.8,2.5
				c3.8,2.8,4.3,7.7,1.4,11.3c-2.7,3.3-6.4,4.6-10.4,5c-3.9,0.4-7.6-0.3-11.1-2.1c-2.9-1.5-5.2-3.7-5.3-7.2
				c-0.2-3.8,1.9-6.5,4.8-8.7c0.3-0.3,1-0.1,1.5-0.1c-0.1,0.5,0,1-0.2,1.4c-0.5,0.8-1.1,1.5-1.7,2.3c-2.5,3.5-1.8,6.8,2,8.8
				c5.3,2.7,10.7,3.1,15.9-0.2c1.8-1.2,3-2.7,2.7-5s-1.7-3.6-3.6-4.3c-3.2-1.3-6.6-2.4-9.8-3.7c-1.3-0.5-2.6-1.2-3.8-1.8
				c-3-1.6-4.3-4.1-4.1-7.5c0.3-3.4,2.2-5.6,5.2-6.8c0.3-0.1,0.6-0.2,1-0.4c0-0.9,0-1.7,0-2.6c-0.1-5.1-0.2-10.2-0.3-15.4
				c0-0.5-0.1-1.2,0.2-1.5c0.5-0.5,1.2-0.9,1.8-1.3c0.3,0.6,0.8,1.1,0.8,1.7c0.1,5.5,0.2,11.1,0.3,16.6c0,0.6,0,1.2,0,2
				c1,0,1.8,0,2.9,0c0-0.6,0-1.2,0-1.7c-0.1-5.3-0.2-10.5-0.2-15.8c0-0.3,0-0.5,0-0.8c0-1.1,0.6-1.9,1.6-1.9c1.2,0,1.1,1.1,1.1,1.9
				c0.1,5.6,0.2,11.2,0.2,16.8c0,1.2,0.3,1.9,1.5,2.5c3.5,1.7,5.6,5.8,4.7,8.9c-0.5,1.7-1.4,3.2-3.1,3.9c-0.5,0.2-1.2-0.1-1.7-0.1
				c0.2-0.5,0.3-1.1,0.6-1.5C302.9,98.7,302.2,94.9,298.2,93z"/>
			<path class="st0" d="M370.5,66c0.1,2.1,0.4,4.2,0.4,6.3c0,5.3-0.1,10.6,0,15.8c0.1,4.8,0.7,9.7,0.9,14.5c0.1,1.8-0.1,3.6-0.1,5.5
				c0,7.5,0,15,0,22.6c0,1.3-0.1,2.8-0.5,4c-0.3,0.8-1.2,1.8-2,2c-1.3,0.3-2-0.9-2.2-2c-0.4-1.5-0.8-3.1-0.7-4.6
				c1.2-14.4,0.8-28.7,0.1-43c-0.3-5.7-0.1-11.4-0.2-17.1c-0.1-3.2-0.2-3.2-3.3-2.9c-0.7,0.1-1.5,0.2-2.2,0
				c-1.2-0.2-2.1-0.9-2.2-2.3c-0.1-1.3,0.8-1.8,1.8-2c1.8-0.4,3.7-0.8,5.5-1.1c2.5-0.3,5.1-0.5,7.6-0.7c0.7,0,1.6,0.2,2.2,0.5
				c1,0.5,1.6,1.6,1.1,2.6c-0.4,0.8-1.3,1.5-2.1,1.7C373.3,66.2,372,66,370.5,66z"/>
			<path class="st0" d="M289.9,79.7c-0.9,0.7-1.5,1.4-2,1.4c-0.4,0-1.3-1-1.3-1.3c0.2-0.6,0.8-1.3,1.5-1.5
				C288.4,78.1,289,79,289.9,79.7z"/>
			<path class="st0" d="M287.6,77.3c-0.6-1-1.4-1.6-1.3-2.2c0.1-0.5,0.9-1,1.4-1.5c0.5,0.5,1.2,1.1,1.3,1.6
				C289,75.8,288.2,76.4,287.6,77.3z"/>
			<path class="st0" d="M300.2,81.8c-0.7-1-1.5-1.5-1.4-2c0.1-0.6,0.8-1.1,1.3-1.6c0.5,0.5,1.3,0.9,1.4,1.4
				C301.5,80.1,300.9,80.7,300.2,81.8z"/>
			<path class="st0" d="M287.3,72c-0.4-0.5-1.1-1.1-1-1.6c0.1-0.6,0.8-1.1,1.3-1.6c0.4,0.5,1.2,1,1.3,1.5c0,0.6-0.6,1.2-1,1.8
				C287.7,72,287.5,72,287.3,72z"/>
			<path class="st0" d="M300.1,73.1c0.7,0.9,1.4,1.5,1.3,2c-0.1,0.6-0.9,1-1.4,1.5c-0.4-0.5-1.2-1-1.2-1.5S299.5,74.1,300.1,73.1z"
				/>
			<path class="st0" d="M300.2,68.3c0.6,0.9,1.3,1.6,1.2,2c-0.1,0.6-0.9,1-1.5,1.4c-0.4-0.5-1.1-1-1.1-1.6
				C298.8,69.7,299.5,69.2,300.2,68.3z"/>
		</g>
	</g>
</g>
</svg>
