<?xml version="1.0" encoding="utf-8"?>
<!-- Generator: Adobe Illustrator 22.1.0, SVG Export Plug-In . SVG Version: 6.00 Build 0)  -->
<svg version="1.1" id="Layer_5" xmlns="http://www.w3.org/2000/svg" xmlns:xlink="http://www.w3.org/1999/xlink" x="0px" y="0px"
	 viewBox="0 0 216 216" style="enable-background:new 0 0 216 216;" xml:space="preserve">
<style type="text/css">
	.st0{stroke:#000000;stroke-width:0.975;stroke-linecap:round;stroke-linejoin:round;stroke-miterlimit:10;}
	.st1{stroke:#000000;stroke-width:0.1625;stroke-miterlimit:10;}
	.st2{fill-rule:evenodd;clip-rule:evenodd;}
</style>
<g>
	<path class="st0" d="M9.3,70.8l9,4.1c0.3-0.4,0.7-1.1,1.1-2l0.7-1.5L19.3,71c-1.1-0.5-2.8-1.1-5.1-1.9c-2.3-0.8-4-1.4-5.1-1.9
		c-0.3-0.1-0.4-0.3-0.5-0.6c-0.1-0.3-0.1-0.6,0-0.7c0.1-0.2,0.1-0.3,0.2-0.5c0-0.1,0.1-0.2,0.1-0.3c0-0.1,0.1-0.2,0.2-0.3
		c0.2-0.2,0.5-0.1,0.9,0.1c2.5,1.1,6.4,2.6,11.6,4.6c5.2,1.9,9,3.5,11.6,4.6c0.2,0.1,0.3,0.3,0.4,0.5s0,0.5-0.2,0.9
		c-0.1,0.3-0.3,0.6-0.6,0.8c-0.3,0.2-0.5,0.3-0.8,0.2c-2.5-0.9-5.5-2.1-9-3.6l-0.1-0.1l-1.1-0.4L21.4,72l0,0c0,0.2-0.2,0.5-0.3,0.9
		l-1.4,2.4l3.9,1.8l0.2,0.1l6.1,2.2c0.4,0.2,0.6,0.4,0.8,0.7c0.2,0.3,0.2,0.6,0,1c-0.2,0.5-0.8,0.7-1.8,0.5c-1-0.2-2.2-0.6-3.7-1.3
		l-5.5-2.5L17.6,77l-2.1-1l-8.3-3.3c-0.3-0.1-0.5-0.3-0.6-0.7c-0.1-0.3-0.1-0.6,0-0.9C7,70.3,7.9,70.2,9.3,70.8z"/>
	<path class="st0" d="M36.5,57.6l0.5,0.6c0.3,0.2,1,0.5,2.2,1c1.2,0.5,1.9,0.8,2.3,1l0,0c0.5,0.3,0.7,0.7,0.6,1.2
		c-0.3,0.5-0.7,0.9-1,1c-0.3,0.2-0.8,0.1-1.4-0.3c-0.6-0.4-2-1.1-4.1-2l-0.8,1.1l-0.8,1.2c-0.3,0.2-0.7,0.6-1.1,1.3
		c0,0,0.2,0.1,0.4,0.3c0.2,0.2,0.4,0.4,0.6,0.5c0.1,0.1,0.4,0.3,0.7,0.6c0.3,0.3,0.5,0.5,0.7,0.7c0.2,0.2,0.4,0.4,0.7,0.7
		c0.2,0.3,0.4,0.5,0.6,0.7c0.1,0.2,0.3,0.4,0.4,0.7c0.2,0.5,0.2,0.8,0,1.2c-0.2,0.3-0.5,0.5-0.8,0.7c-0.3,0.1-0.6,0.1-0.9-0.1
		c-1.8-2.1-3.7-4.2-5.9-6.3c-2.1-2.1-3.4-3.3-3.8-3.7c-0.4-0.4-1.1-1.2-2.2-2.4c-1.1-1.2-1.8-2-2.2-2.3c-0.4-0.4-0.9-0.8-1.6-1.3
		c-1.4-1.1-2.3-2-2.5-2.6l0.8-1.2c0.6-0.8,1.1-1.1,1.5-0.8c4.2,2.8,8.7,5.2,13.5,7c0.3,0.1,0.7,0.3,1.2,0.4
		C35.1,56.9,36,57.2,36.5,57.6z M34.1,59.6c-0.4-0.1-0.9-0.5-1.6-0.9c-0.7-0.5-1.6-1-2.7-1.6c-1.1-0.6-2.4-1.2-3.8-1.9
		c-1.5-0.7-2.5-1.2-3.2-1.6c0.5,0.6,1.4,1.5,2.6,2.9c2.5,2.9,4.5,4.8,6.1,6C32,62.2,32.9,61.3,34.1,59.6z"/>
	<path class="st0" d="M35.6,44.4l7.4,7l3.2,3.2c0.2,0.2,0.4,0.5,0.4,0.8c0,0.3-0.1,0.6-0.3,0.8c-0.7,0.7-1.6,0.5-2.7-0.7l-9.9-9.7
		l-5-5.4c-1.3-1.2-1.5-2.3-0.8-3c0.5-0.5,1.1-0.5,1.9-0.1c1.5,0.9,3.7,2.1,6.7,3.7c3,1.5,5.2,2.8,6.6,3.7c0.8,0.4,1.9,1,3.3,1.8
		c1.4,0.8,2.5,1.4,3.2,1.8c-4-4.1-8.8-9-14.6-14.7l-0.8-0.7c-0.3-0.3-0.4-0.5-0.5-0.8c0-0.3,0.1-0.5,0.3-0.8
		c0.3-0.3,0.5-0.4,0.8-0.5c0.5-0.1,1,0,1.4,0.4c2.6,2.5,5.8,5.9,9.6,10.1c3.9,4.2,6.1,6.9,6.8,8.2c0,0-0.1,0.2-0.2,0.3
		c-0.1,0.2-0.2,0.3-0.2,0.4c-0.5,0.7-0.8,1-1.2,1c-0.3,0-0.6-0.1-1-0.3c-0.3-0.2-0.7-0.4-1-0.6c-0.3-0.2-1.9-1.1-4.7-2.7
		c-7.4-4.4-11.7-6.8-13-7.4L35.6,44.4z"/>
	<path class="st0" d="M60,30.8c4.2,6.3,4.9,10.4,2.1,12.3c-2.6,1.8-6.1-0.2-10.4-5.9c-0.4-0.5-0.8-1.1-1.2-1.7l-1.4-2l-0.4-0.6
		c-3.1-4.6-4.3-8-3.5-10.1c0.2-0.5,0.5-0.9,0.9-1.3c0.4-0.1,0.9-0.3,1.5-0.6c0.6-0.2,1-0.4,1.3-0.5c0.6-0.1,1.4,0,2.4,0.5
		c1,0.4,2.1,1.2,3.2,2.3c1.1,1.1,2.1,2.3,3,3.6L60,30.8z M48.1,27.6l1.4,1.9l2.1,3.1c0.2,0.3,0.4,0.6,0.7,0.9c0.3,0.4,0.6,0.8,1,1.4
		c0.4,0.6,0.8,1.1,1.3,1.7c0.4,0.5,0.9,1.1,1.4,1.7c0.5,0.6,1,1.1,1.5,1.6c0.5,0.5,1,0.9,1.4,1.2c1,0.8,1.7,1,2.2,0.6
		c0.7-0.5,0.8-1.4,0.4-2.9c-0.6-2.1-1.8-4.5-3.6-7l-2.2-3.4c-1.6-2.4-2.8-3.9-3.6-4.5c-0.8-0.7-1.4-1.1-1.9-1.4
		c-1-0.6-1.9-0.6-2.7,0c0,0,0,0-0.1,0C46.1,23.4,46.4,25.1,48.1,27.6z"/>
	<path class="st0" d="M70,8.3c0.6-0.3,1-0.2,1.1,0.1c0.6,1.4,1,3.2,1.2,5.5c0.2,2.3,0.5,3.9,0.6,4.7c0.2,0.8,0.5,2,1,3.5
		c0.5,1.5,0.8,2.6,0.9,3.2c0.1,0.6,0.3,1.4,0.4,2.4c0.1,1,0.2,1.6,0.3,1.9c0.1,0.3,0.2,0.7,0.3,1.2c0.2,0.5,0.3,0.9,0.4,1.3
		c0.1,0.4,0.2,0.8,0.2,1.2c0.1,0.9-0.3,1.6-1.1,1.9l-1.1-0.2c-1.3-2.9-2.9-5.8-4.8-8.6c-1.9-2.8-3.6-5.1-5.1-6.9
		c-1.5-1.8-2.5-3-2.9-3.4c-1-1.1-1.6-1.8-1.8-2.1c-0.1-0.3-0.1-0.6,0-0.9c0.1-0.3,0.3-0.4,0.6-0.6c0.3-0.1,0.6-0.1,0.9,0
		c0.3,0.1,0.6,0.3,0.9,0.6c0.3,0.3,0.5,0.6,0.8,0.9c0.2,0.3,0.4,0.6,0.7,1c0.2,0.4,0.4,0.6,0.5,0.7c3.8,5,7.1,9.8,10,14.4
		c-0.2-1-0.6-2.7-1.3-5c-0.7-2.3-1.4-5.4-2.1-9.4c-0.8-3.9-1.3-6.4-1.5-7.2L70,8.3z"/>
	<path class="st0" d="M89.6,28.7l1.7-0.5c1.1-0.3,1.7-0.1,1.8,0.6c0.1,0.4,0,0.7-0.4,1c-0.3,0.3-0.7,0.5-1.2,0.6l-4,0.9
		c-0.4,0.1-0.7,0-1-0.1c-0.3-0.2-0.5-0.4-0.6-0.8c-0.1-0.3-0.2-0.8-0.2-1.3c0-0.5-0.1-1-0.2-1.3l-1.4-4.9l-2.3-11.3l-1-3.2
		c-0.4-1.8,0-2.9,1.2-3.1c0.3-0.1,0.7-0.1,1,0.1c0.1,0,0.4-0.1,0.8-0.1c0.4-0.1,0.8-0.1,1.1-0.1c0.3,0,0.7,0,1.1,0
		c0.9,0,1.3,0.3,1.5,0.7c0.1,0.5-0.2,1-1,1.5c-1.4-0.1-2.5-0.1-3.4,0c0.2,0.5,0.3,1.1,0.5,1.6l1.1,5.6c0,0,0.1,0.2,0.3,0.6l1.5-0.4
		c1.4-0.3,2.1-0.1,2.3,0.6c0.1,0.4,0,0.7-0.1,1.1c-0.2,0.3-0.5,0.6-0.9,0.7c-0.4,0.1-0.9,0.1-1.2-0.1l-1.1,0.3
		c0.3,1,0.6,1.9,0.8,2.7l1.4,7C87.9,28.4,88.6,29,89.6,28.7z"/>
	<path class="st0" d="M99.2,16.8c-0.1,0.7-0.2,1.4-0.1,2.1c0,0.6,0.2,1.9,0.6,4c0.3,2,0.5,3.3,0.6,3.9c0,0.6,0,1-0.2,1.4
		c-0.2,0.3-0.5,0.5-0.8,0.5c-0.4,0-0.7-0.2-0.9-0.7c0-1-0.1-2.2-0.2-3.6c-0.1-1.4-0.5-4.5-1.1-9.3c-0.6-4.8-1-8.4-1.2-10.7
		c-0.1-1.2,0.3-1.9,1.3-2c1.5-0.1,2.8,0.1,3.9,0.8c1.1,0.6,1.7,1.6,1.8,3c0.1,1.8,0.1,3.2-0.1,4.2c-0.2,1-0.7,2.3-1.5,3.9
		c0.2,0.6,0.6,1.8,1.1,3.7c1.2,4,2.3,6.9,3.5,8.6c0.3,0.5,0.5,0.9,0.5,1.2c0,0.3,0,0.5-0.2,0.8c-0.2,0.2-0.4,0.3-0.7,0.4
		c-1,0.1-1.9-1.3-3-4.1c-0.4-1.2-0.8-2.4-1.2-3.7c-1-3.4-1.7-5.3-1.9-5.7C99.4,15.6,99.4,16.1,99.2,16.8z M98.1,3.7L98,4.3
		c0.1,1.1,0.2,2.6,0.5,4.7c0.2,2,0.4,3.5,0.4,4.4c0.7-0.4,1.1-1.3,1.5-2.6c0.3-1.4,0.4-2.4,0.4-3.2c-0.1-0.7-0.1-1.2-0.2-1.6
		c-0.1-0.3-0.2-0.7-0.4-1.1C99.9,4.1,99.2,3.7,98.1,3.7z"/>
	<path class="st0" d="M118.5,27l2.2,0.7c0.6,0.1,1.1,0,1.5-0.4c0.5-0.4,0.9-0.9,1.2-1.5c0.6-1.2,1-2.3,1.1-3.2
		c0.2-1,0.1-1.9-0.1-2.9c-0.2-1-0.5-1.9-0.9-2.8c-0.4-0.9-0.8-1.8-1.1-2.7c-0.9-2.2-1.2-4.2-0.9-6.1c0.2-1.2,0.6-2.2,1.2-3
		c1.1-1.5,2.3-2.2,3.7-2c0.5,0.1,1,0.3,1.4,0.7c0.4,0.4,0.6,0.7,0.5,1.1c-0.1,0.6-0.5,0.8-1.2,0.7c-0.3-0.1-0.6-0.2-0.9-0.4
		c-0.9-0.1-1.7,0.7-2.3,2.5c-0.1,0.4-0.2,0.8-0.3,1.4c-0.1,0.5-0.1,1.2,0.1,2c0.1,0.8,0.3,1.6,0.6,2.2c0.3,0.7,0.6,1.4,0.9,2.2
		c0.3,0.8,0.6,1.6,0.9,2.3c0.6,1.7,0.8,3.6,0.4,5.7c-0.3,1.6-0.9,3.1-1.8,4.3c-0.5,0.6-1.1,1.1-1.9,1.5c-0.8,0.3-1.6,0.4-2.5,0.3
		l0,0.1c-0.5-0.2-1-0.4-1.4-0.7c-0.4-0.3-0.6-0.7-0.6-1.1L118.5,27z"/>
	<path class="st0" d="M135.2,28.6l0.5-1.3c0-0.4,0.7-3.3,2.1-8.7c1.4-5.5,2.2-8.8,2.6-10c-1.6-0.6-2.5-1-2.8-1.4
		c-0.3-0.3-0.4-0.6-0.3-0.9c0.1-0.2,0.3-0.4,0.6-0.5c0.3-0.1,0.7,0,1,0.1l5.6,2.2l0.7,0.2c0.9,0.3,1.2,0.7,1,1.3
		c-0.1,0.3-0.3,0.5-0.7,0.6c-0.3,0.1-0.7,0.1-1,0l-1.8-0.9l-0.2,0.4c-0.8,2.4-1.7,6-2.7,10.9c-1.1,4.9-2,8.5-2.7,10.9
		c-0.1,0.3-0.3,0.5-0.6,0.7c-0.3,0.1-0.7,0.2-1,0l-0.9-0.3L135.2,28.6z"/>
	<path class="st0" d="M149.8,25.8c-0.5,0.6-0.9,1.1-1.2,1.7c-0.3,0.6-0.8,1.8-1.6,3.7c-0.8,1.9-1.3,3.1-1.5,3.6
		c-0.3,0.5-0.6,0.9-0.9,1c-0.3,0.2-0.7,0.2-0.9,0.1c-0.4-0.2-0.5-0.6-0.4-1.1c0.5-0.9,1-1.9,1.7-3.2c0.6-1.3,1.9-4.1,3.9-8.5
		c1.9-4.4,3.5-7.7,4.5-9.8c0.6-1.1,1.3-1.4,2.1-1c1.4,0.7,2.3,1.6,3,2.7c0.6,1.1,0.6,2.3,0,3.5c-0.8,1.6-1.6,2.8-2.3,3.5
		c-0.7,0.8-1.8,1.6-3.3,2.6c-0.1,0.6-0.5,1.9-1,3.8c-1.1,4-1.6,7.1-1.4,9.2c0,0.6,0,1-0.1,1.3c-0.1,0.3-0.3,0.4-0.6,0.5
		c-0.2,0.1-0.5,0.1-0.8-0.1c-0.9-0.4-1-2.1-0.4-5c0.3-1.3,0.6-2.5,0.9-3.8c0.9-3.5,1.3-5.4,1.3-5.9
		C150.6,24.8,150.3,25.3,149.8,25.8z M155.7,14.1l-0.4,0.4c-0.5,1-1.2,2.4-2,4.2c-0.9,1.8-1.5,3.2-1.9,4c0.8,0,1.6-0.5,2.6-1.5
		c1-1,1.6-1.9,2-2.5c0.3-0.6,0.5-1.1,0.7-1.4c0.1-0.3,0.2-0.7,0.3-1.1C157,15.2,156.6,14.5,155.7,14.1z"/>
	<path class="st0" d="M158.8,44.4l-1.3-0.9l-1.6-1.1c-0.7-0.5-1-1-0.9-1.5c0.2-0.3,0.4-0.5,0.7-0.6c0.2-0.1,0.5-0.1,0.7,0.1l1,0.7
		l0.4-0.4l4.7-7l5.3-7c0.9-1.2,1.6-2.4,2.3-3.5c-0.5-0.4-1-0.7-1.4-1c-0.4-0.3-0.7-0.6-0.8-0.8c-0.1-0.3,0-0.6,0.2-0.9
		c0.4-0.5,1.2-0.3,2.5,0.7l0.1,0.1c3,2.2,4.3,3.7,3.8,4.4c-0.1,0.1-0.3,0.3-0.6,0.4l-1.8-1.3c-0.5,0.8-1.1,1.8-1.8,2.9l-4.6,6
		l-4.6,7l-0.7,1c-0.1,0.2-0.4,0.4-0.7,0.8l1.5,1.1c1,0.7,1.3,1.3,0.9,1.8c-0.2,0.2-0.4,0.4-0.7,0.4c-0.3,0-0.5,0-0.7-0.2L158.8,44.4
		z"/>
	<path class="st0" d="M177.1,40.1l-7.2,7.3l-3.2,3.1c-0.2,0.2-0.5,0.4-0.8,0.4c-0.3,0-0.6-0.1-0.8-0.4c-0.7-0.7-0.4-1.6,0.7-2.7
		l10-9.7l5.5-4.9c1.3-1.2,2.3-1.5,3-0.7c0.4,0.5,0.4,1.1,0,1.9c-0.9,1.5-2.2,3.7-3.8,6.6c-1.6,2.9-2.9,5.1-3.8,6.5
		c-0.4,0.8-1,1.8-1.9,3.3c-0.8,1.4-1.5,2.5-1.9,3.2c4.2-3.9,9.2-8.6,15.1-14.3l0.7-0.8c0.3-0.2,0.5-0.4,0.8-0.4
		c0.3,0,0.5,0.1,0.8,0.3c0.2,0.3,0.4,0.5,0.4,0.8c0.1,0.5-0.1,1-0.5,1.4c-2.6,2.5-6,5.6-10.3,9.4c-4.2,3.8-7,6-8.4,6.6
		c0,0-0.2-0.1-0.3-0.2c-0.2-0.1-0.3-0.2-0.4-0.2c-0.7-0.5-1-0.9-1-1.2c0-0.3,0.1-0.6,0.3-1c0.2-0.3,0.4-0.7,0.6-1
		c0.2-0.3,1.1-1.9,2.8-4.6c4.5-7.3,7.1-11.5,7.7-12.8L177.1,40.1z"/>
	<path class="st0" d="M187.8,62.2l-0.4-0.6c-0.2-0.3-0.4-0.7-0.4-0.9c0-0.3,0.1-0.5,0.4-0.7c0.3-0.2,0.6-0.2,0.9-0.1
		c0.3,0.1,0.6,0.3,0.8,0.7l0,0c1.6,2.4,2,3.8,1.3,4.3l-2.7,1.2l-3.4,2.5c-0.6,0.4-1.2,0.7-1.7,0.9c-2.1-0.7-3.5-1.5-4.2-2.6
		c-0.4-0.6-0.6-1.2-0.6-1.9c0-0.7,0.1-1.5,0.5-2.4c0.4-0.9,1.4-2.2,3.1-3.8c1.7-1.6,2.9-2.6,3.7-3.1c0.8-0.5,1.4-0.9,1.9-1.2
		c0.5-0.3,1.1-0.6,1.8-0.9c0.7-0.3,1.1-0.6,1.3-0.7c0.2-0.1,0.5-0.3,0.8-0.5c0.4-0.2,0.7-0.4,1.1-0.6c0.3-0.2,0.8-0.4,1.5-0.7
		c0.6-0.3,1.2-0.5,1.6-0.6c0.4-0.1,0.9-0.2,1.5-0.2c0.6,0,1.1,0,1.5,0.1c1,0.4,1.9,1,2.5,2c0.6,1,0.7,1.6,0.1,2
		c-0.3,0.2-0.5,0.2-0.8,0.1c-0.3-0.1-0.5-0.3-0.7-0.6l-0.4-0.7c-0.5-0.7-1.6-0.8-3.3-0.2c-1.7,0.6-3.2,1.2-4.4,1.9
		c-1.9,1.1-3.1,1.8-3.7,2.2c-0.6,0.4-1.1,0.7-1.4,0.9c-0.3,0.2-0.7,0.5-1.2,0.8c-0.5,0.3-0.9,0.6-1.2,0.9c-0.4,0.3-0.7,0.6-1.1,1
		c-0.4,0.4-0.8,0.7-1,1c-0.3,0.3-0.5,0.7-0.8,1c-0.2,0.4-0.4,0.7-0.5,1.1c-0.2,0.7-0.1,1.4,0.3,2c0.7,1.1,2.9,0.4,6.6-2.1l1.2-0.8
		C188.1,62.8,188,62.5,187.8,62.2z"/>
	<path class="st0" d="M184.8,73.9l0.7,2.2c0.2,0.5,0.6,0.9,1.2,1.1c0.6,0.2,1.2,0.3,1.9,0.2c1.3-0.2,2.4-0.4,3.3-0.8
		c0.9-0.4,1.7-0.9,2.4-1.6c0.7-0.7,1.4-1.5,1.9-2.3c0.5-0.8,1.1-1.6,1.7-2.4c1.3-1.9,2.9-3.3,4.7-4.1c1.1-0.5,2.1-0.7,3.1-0.7
		c1.9,0.1,3.1,0.7,3.7,2c0.2,0.5,0.3,1,0.2,1.5c-0.1,0.5-0.3,0.9-0.6,1c-0.6,0.2-1,0-1.3-0.6c-0.1-0.3-0.2-0.6-0.2-0.9
		c-0.4-0.8-1.5-1-3.3-0.6c-0.4,0.1-0.8,0.2-1.3,0.5c-0.5,0.2-1,0.6-1.7,1.1c-0.6,0.6-1.1,1.1-1.5,1.7c-0.4,0.6-0.9,1.3-1.3,2
		c-0.5,0.7-1,1.4-1.5,2c-1.1,1.5-2.6,2.6-4.5,3.5c-1.5,0.7-3,0.9-4.6,0.8c-0.8-0.1-1.6-0.3-2.3-0.8c-0.7-0.5-1.2-1.1-1.6-2l-0.1,0
		c-0.2-0.5-0.2-1-0.1-1.6c0.1-0.5,0.3-0.9,0.6-1.1L184.8,73.9z"/>
</g>
<g>
	<path class="st1" d="M33.8,169.5c-0.4,0.1-0.7,0.3-0.9,0.4l-0.8,0.6c-1.4,1-2.7,1.7-3.8,1.9c-0.2,0-0.4,0.1-0.5,0.2
		c-0.7,0.5-1.3,0.5-1.6,0c-0.2-0.3-0.2-0.5-0.1-0.7c0-0.1,0.1-0.2,0.3-0.3s0.4-0.4,0.8-1c0.2-0.2,0.3-0.4,0.5-0.6
		c0.2-0.2,0.6-0.6,1.2-1.2c0.6-0.6,1.1-1.1,1.4-1.5c-0.3,0.1-0.6,0.3-0.9,0.5c-0.3,0.2-1,0.5-2.1,0.9c-0.5,0.2-0.8,0.3-0.9,0.3
		c-0.1,0-0.3,0.1-0.5,0.3c-0.2,0.1-0.5,0.2-0.9,0.3c-0.4,0.1-0.7,0-1-0.3c-0.3-0.4-0.2-0.9,0.3-1.5c0.2-0.3,0.4-0.5,0.7-0.7
		c0.2-0.2,0.5-0.4,0.7-0.6c0.2-0.2,0.4-0.3,0.5-0.4c0.1-0.1,0.3-0.3,0.6-0.7c0.3-0.4,0.5-0.7,0.7-0.8c0.1-0.1,0.3-0.3,0.6-0.5
		c0.2-0.2,0.5-0.4,0.8-0.7c0.3-0.3,0.5-0.6,0.6-1.1c0.2,0,0.4,0.2,0.6,0.5c0.3,0.5,0.2,0.9-0.3,1.2c-0.5,0.4-1.2,1.1-2,2.1
		c-0.8,1-1.5,1.8-1.9,2.1c0.1,0,0.3-0.1,0.6-0.2c0.3-0.1,0.5-0.2,0.6-0.2c0.1,0,0.3-0.1,0.6-0.2c0.3-0.1,0.5-0.2,0.6-0.3
		c0.1-0.1,0.3-0.2,0.5-0.3c0.2-0.1,0.4-0.2,0.6-0.4c0.2-0.1,0.5-0.3,1-0.5c0.5-0.2,0.8-0.4,0.9-0.5l0.4,0.6c0.1,0.2,0.2,0.3,0.2,0.5
		c0,0.1,0,0.2-0.1,0.3l-0.1,0.1c-0.4,0.8-1.2,1.8-2.3,3c-0.5,0.5-0.9,0.9-1.2,1.2c1.2-0.5,2.4-1.2,3.8-2.1c0.2-0.1,0.5-0.3,0.9-0.4
		c0.4-0.1,0.7-0.3,0.9-0.4c0-0.1,0.1-0.2,0.1-0.2c0.2-0.1,0.4,0,0.7,0.4c0.3,0.4,0.3,0.7,0.2,0.8C34.4,169.3,34.2,169.4,33.8,169.5z
		"/>
	<path class="st1" d="M41.3,178.1c-0.4,0.2-0.7,0.3-0.8,0.5l-0.7,0.6c-1.3,1.2-2.5,2-3.6,2.4c-0.2,0.1-0.4,0.2-0.5,0.3
		c-0.7,0.6-1.2,0.7-1.6,0.2c-0.2-0.2-0.3-0.5-0.2-0.7c0-0.1,0.1-0.2,0.3-0.3c0.1-0.1,0.4-0.5,0.7-1c0.1-0.2,0.3-0.5,0.4-0.7
		c0.2-0.2,0.5-0.7,1.1-1.3c0.6-0.7,1-1.2,1.2-1.6c-0.2,0.2-0.5,0.4-0.8,0.6c-0.3,0.3-0.9,0.6-1.9,1.1c-0.5,0.2-0.8,0.4-0.9,0.4
		c-0.1,0.1-0.3,0.2-0.5,0.3c-0.2,0.1-0.5,0.3-0.9,0.4c-0.4,0.1-0.7,0.1-1-0.2c-0.3-0.4-0.3-0.9,0.1-1.5c0.2-0.3,0.4-0.6,0.6-0.8
		c0.2-0.2,0.4-0.5,0.6-0.7c0.2-0.2,0.4-0.4,0.4-0.5c0.1-0.1,0.2-0.4,0.5-0.8c0.3-0.4,0.4-0.7,0.6-0.9c0.1-0.2,0.3-0.4,0.5-0.6
		c0.2-0.2,0.4-0.5,0.7-0.8c0.2-0.3,0.4-0.7,0.4-1.1c0.2,0,0.4,0.1,0.7,0.4c0.4,0.4,0.3,0.8-0.1,1.3c-0.5,0.4-1,1.2-1.8,2.3
		c-0.7,1.1-1.3,1.9-1.7,2.4c0.1,0,0.3-0.1,0.6-0.3c0.3-0.1,0.5-0.2,0.6-0.3c0.1-0.1,0.3-0.1,0.5-0.3c0.2-0.1,0.4-0.2,0.6-0.3
		c0.1-0.1,0.3-0.2,0.5-0.3c0.2-0.1,0.4-0.3,0.5-0.4c0.2-0.2,0.5-0.4,0.9-0.7c0.5-0.3,0.8-0.5,0.9-0.6l0.5,0.5
		c0.1,0.1,0.2,0.3,0.3,0.4c0,0.1,0,0.2,0,0.3l-0.1,0.1c-0.3,0.9-1,1.9-2,3.2c-0.5,0.6-0.8,1-1,1.4c1.1-0.6,2.2-1.5,3.5-2.6
		c0.2-0.1,0.4-0.3,0.9-0.5c0.4-0.2,0.7-0.4,0.9-0.5c0-0.1,0.1-0.2,0.1-0.2c0.2-0.1,0.4,0,0.7,0.3c0.3,0.4,0.4,0.6,0.3,0.7
		C42,177.8,41.7,177.9,41.3,178.1z"/>
	<path class="st1" d="M49.8,185.7c-0.4,0.2-0.6,0.4-0.8,0.6l-0.6,0.7c-1.2,1.3-2.3,2.3-3.3,2.8c-0.2,0.1-0.3,0.2-0.5,0.3
		c-0.6,0.7-1.1,0.8-1.6,0.4c-0.2-0.2-0.3-0.4-0.2-0.7c0-0.1,0.1-0.2,0.2-0.3c0.1-0.2,0.3-0.5,0.5-1.1c0.1-0.2,0.2-0.5,0.4-0.7
		c0.1-0.2,0.4-0.7,0.9-1.5c0.5-0.7,0.8-1.3,1-1.7c-0.2,0.2-0.5,0.4-0.7,0.7c-0.3,0.3-0.9,0.7-1.8,1.3c-0.4,0.3-0.7,0.5-0.8,0.5
		c-0.1,0.1-0.3,0.2-0.5,0.4c-0.2,0.2-0.5,0.3-0.8,0.5c-0.4,0.2-0.7,0.2-1-0.1c-0.4-0.3-0.4-0.8-0.1-1.5c0.2-0.3,0.3-0.6,0.5-0.9
		c0.2-0.3,0.3-0.5,0.5-0.8c0.2-0.2,0.3-0.4,0.4-0.5c0.1-0.1,0.2-0.4,0.4-0.9c0.2-0.5,0.4-0.8,0.5-0.9c0.1-0.2,0.3-0.4,0.4-0.6
		c0.2-0.3,0.4-0.5,0.6-0.9c0.2-0.3,0.3-0.7,0.3-1.2c0.2,0,0.4,0.1,0.7,0.3c0.4,0.4,0.4,0.8,0,1.3c-0.4,0.5-0.9,1.3-1.5,2.5
		c-0.6,1.2-1,2.1-1.4,2.5c0.1,0,0.2-0.2,0.5-0.3c0.3-0.2,0.5-0.3,0.6-0.4c0.1-0.1,0.3-0.2,0.5-0.3c0.2-0.2,0.4-0.3,0.5-0.4
		c0.1-0.1,0.3-0.2,0.4-0.4c0.2-0.1,0.3-0.3,0.5-0.5c0.2-0.2,0.4-0.4,0.9-0.8c0.4-0.3,0.7-0.6,0.8-0.7l0.5,0.5
		c0.1,0.1,0.3,0.3,0.3,0.4c0.1,0.1,0.1,0.2,0,0.3l-0.1,0.1c-0.2,0.9-0.7,2-1.6,3.4c-0.4,0.6-0.7,1.1-0.8,1.5c1-0.7,2.1-1.7,3.1-3
		c0.1-0.2,0.4-0.4,0.8-0.6c0.4-0.2,0.6-0.4,0.8-0.6c0-0.1,0-0.2,0.1-0.2c0.1-0.2,0.4-0.1,0.8,0.2c0.4,0.3,0.5,0.6,0.4,0.7
		C50.4,185.3,50.2,185.5,49.8,185.7z"/>
	<path class="st1" d="M48.8,194.6c-0.2-0.2-0.4-0.3-0.5-0.5c-0.1-0.2-0.1-0.3,0-0.4c0.1-0.1,0.2-0.1,0.4-0.1c0.2,0,0.4,0.1,0.6,0.3
		c0.2,0.1,0.4,0.3,0.4,0.5c0.1,0.2,0.1,0.3,0,0.4c-0.1,0.1-0.2,0.1-0.4,0.1C49.2,194.8,49,194.7,48.8,194.6z"/>
	<path class="st1" d="M58.2,191.3l-1.8,2.7c0.2,0.2,0.6,0.5,1.1,0.8l0.8,0.5l0.1-0.2c0.2-0.3,0.5-0.9,0.8-1.6
		c0.3-0.7,0.6-1.3,0.8-1.6c0.1-0.1,0.2-0.1,0.3-0.1c0.2,0,0.3,0.1,0.4,0.1c0.1,0.1,0.2,0.1,0.3,0.1c0.1,0,0.1,0.1,0.2,0.1
		c0,0,0.1,0.1,0.1,0.1c0.1,0.1,0.1,0.2,0,0.3c-0.5,0.8-1.1,2-1.9,3.6c-0.8,1.6-1.5,2.8-1.9,3.6c0,0.1-0.1,0.1-0.3,0
		c-0.1,0-0.3-0.1-0.5-0.2c-0.2-0.1-0.3-0.2-0.4-0.4c-0.1-0.1-0.2-0.2-0.1-0.3c0.4-0.8,0.9-1.7,1.5-2.8l0,0l0.2-0.3l0.1-0.1l0,0
		c-0.1-0.1-0.3-0.2-0.5-0.3l-1.3-0.9l-0.8,1.2l0,0l-0.9,1.9c-0.1,0.1-0.2,0.2-0.3,0.2c-0.2,0-0.3,0-0.5-0.2
		c-0.3-0.2-0.4-0.4-0.4-0.8c0.1-0.3,0.2-0.7,0.5-1.2l1.1-1.6l0.4-0.6l0.4-0.6l1.4-2.6c0.1-0.1,0.2-0.1,0.3-0.1
		c0.2,0,0.3,0.1,0.5,0.2C58.4,190.4,58.5,190.8,58.2,191.3z"/>
	<path class="st1" d="M67.3,202.7l-0.2,0.2c0,0.1-0.1,0.4-0.1,0.8c0,0.4-0.1,0.7-0.1,0.8l0,0c-0.1,0.2-0.3,0.2-0.5,0.2
		c-0.3-0.2-0.6-0.3-0.7-0.5c-0.2-0.1-0.2-0.3-0.1-0.5c0.1-0.2,0.2-0.7,0.3-1.5l-0.7-0.4l-0.8-0.4c-0.2-0.1-0.5-0.3-0.9-0.5
		c0,0,0,0.1-0.1,0.1c-0.1,0.1-0.1,0.2-0.2,0.2c0,0.1-0.1,0.1-0.2,0.2c-0.1,0.1-0.2,0.2-0.2,0.2c-0.1,0.1-0.2,0.1-0.2,0.2
		c-0.1,0.1-0.2,0.1-0.3,0.2c-0.1,0-0.2,0.1-0.3,0.1c-0.2,0.1-0.4,0.1-0.6,0c-0.2-0.1-0.4-0.2-0.5-0.3c-0.1-0.1-0.2-0.2-0.1-0.3
		c0.8-0.6,1.5-1.2,2.3-2c0.7-0.7,1.1-1.1,1.3-1.3c0.1-0.1,0.4-0.4,0.9-0.7c0.4-0.4,0.7-0.6,0.8-0.7c0.1-0.1,0.3-0.3,0.4-0.5
		c0.3-0.5,0.6-0.8,0.9-0.8l0.8,0.4c0.5,0.3,0.8,0.5,0.7,0.6c-0.7,1.5-1.2,3.1-1.3,4.9c0,0.1,0,0.3,0,0.4
		C67.4,202.1,67.4,202.5,67.3,202.7z M65.8,201.6c0-0.1,0.1-0.3,0.2-0.6c0.1-0.3,0.2-0.6,0.4-1c0.1-0.4,0.2-0.9,0.3-1.4
		c0.1-0.5,0.2-0.9,0.3-1.2c-0.2,0.2-0.6,0.5-1.1,0.8c-1.1,0.8-1.7,1.5-2,2.1C64,200.6,64.7,201,65.8,201.6z"/>
	<path class="st1" d="M73.2,201.8l-1,3.2l-0.5,1.4c0,0.1-0.1,0.2-0.3,0.2c-0.1,0-0.3,0-0.5-0.1c-0.5-0.2-0.7-0.5-0.5-1l1.5-4.3
		l1-2.2c0.2-0.5,0.6-0.7,1.2-0.5c0.4,0.1,0.6,0.4,0.6,0.7c0,0.6,0.1,1.5,0.3,2.7c0.2,1.2,0.3,2.1,0.3,2.7c0.1,0.3,0.1,0.7,0.2,1.3
		c0.1,0.6,0.1,1,0.2,1.3c0.7-1.7,1.5-3.9,2.4-6.4l0.1-0.3c0-0.1,0.1-0.2,0.2-0.2c0.1,0,0.3,0,0.5,0.1c0.2,0.1,0.4,0.2,0.5,0.2
		c0.2,0.2,0.3,0.4,0.2,0.5c-0.4,1.1-1,2.5-1.8,4.2c-0.8,1.7-1.4,2.7-1.8,3.1c0,0-0.1,0-0.2,0c-0.1,0-0.2,0-0.2,0
		c-0.5-0.1-0.8-0.2-0.8-0.3c-0.1-0.1-0.1-0.2-0.2-0.4c0-0.1,0-0.3-0.1-0.4c0-0.1-0.1-0.8-0.2-1.9c-0.2-3-0.4-4.7-0.5-5.3L73.2,201.8
		z"/>
	<path class="st1" d="M87.4,207.9c-0.6,2.4-1.9,3.4-3.9,2.9c-1.8-0.5-2.6-1.9-2.2-4.2c0-0.2,0.1-0.4,0.1-0.7l0.2-0.8l0.1-0.2
		c0.4-1.8,1.2-2.7,2.4-2.9c0.3,0,0.6,0,0.9,0c0.2,0.1,0.5,0.2,0.8,0.3c0.3,0.1,0.6,0.2,0.7,0.3c0.3,0.1,0.6,0.4,0.8,0.8
		c0.3,0.4,0.4,0.8,0.5,1.4c0,0.5,0,1-0.1,1.5L87.4,207.9z M83.5,203.7l-0.1,0.7l-0.3,1.2c0,0.1-0.1,0.2-0.1,0.4
		c0,0.1-0.1,0.3-0.1,0.6c0,0.2-0.1,0.5-0.1,0.7c0,0.2,0,0.5,0,0.7c0,0.3,0,0.5,0,0.7c0,0.2,0.1,0.4,0.1,0.6c0.1,0.4,0.4,0.7,0.7,0.8
		c0.5,0.1,0.9,0,1.3-0.4c0.5-0.6,0.9-1.4,1.2-2.4l0.4-1.3c0.2-0.9,0.3-1.5,0.2-1.9c-0.1-0.4-0.2-0.6-0.3-0.8
		c-0.2-0.4-0.6-0.7-1.1-0.8c0,0,0,0,0,0C84.3,202.4,83.7,202.8,83.5,203.7z"/>
	<path class="st1" d="M98.2,204.3c0.4,0.1,0.6,0.1,0.6,0.3c-0.1,0.5-0.4,1.1-0.9,1.7c-0.5,0.7-0.8,1.1-1,1.4
		c-0.1,0.3-0.3,0.6-0.5,1.2c-0.2,0.5-0.3,0.9-0.4,1.1c-0.1,0.2-0.2,0.4-0.4,0.7c-0.2,0.3-0.3,0.5-0.4,0.6c-0.1,0.1-0.1,0.2-0.1,0.4
		c0,0.2-0.1,0.3-0.1,0.4c-0.1,0.1-0.1,0.2-0.2,0.4c-0.2,0.3-0.6,0.4-1.1,0.3l-0.5-0.3c0.1-1,0.1-2.1-0.1-3.3
		c-0.2-1.1-0.5-2.1-0.8-2.9c-0.3-0.8-0.5-1.3-0.6-1.5c-0.2-0.5-0.3-0.8-0.3-0.9c0-0.1,0.1-0.2,0.2-0.2c0.1,0,0.3,0,0.5,0
		c0.2,0,0.3,0.1,0.5,0.2c0.1,0.1,0.2,0.2,0.3,0.4c0.1,0.1,0.1,0.3,0.1,0.4c0,0.1,0.1,0.3,0.1,0.4c0,0.2,0,0.2,0.1,0.3
		c0.6,2.1,1,4.1,1.3,5.9c0.2-0.3,0.4-0.9,0.7-1.6c0.3-0.7,0.8-1.7,1.4-2.9c0.7-1.2,1.1-2,1.2-2.2L98.2,204.3z"/>
	<path class="st1" d="M103.6,213l1,0c0.7,0,1,0.2,1,0.4c0,0.1-0.1,0.2-0.4,0.3c-0.2,0-0.5,0.1-0.8,0l-2.4-0.1
		c-0.2,0-0.4-0.1-0.6-0.1c-0.2-0.1-0.2-0.2-0.2-0.3c0-0.1,0-0.3,0.1-0.4c0.1-0.2,0.1-0.3,0.1-0.4l0-1.7l0.4-3.8l-0.1-1.1
		c0-0.6,0.4-0.9,1.1-0.9c0.2,0,0.4,0.1,0.6,0.1c0.1,0,0.2,0,0.5,0c0.3,0,0.5,0,0.7,0.1c0.2,0,0.4,0.1,0.6,0.1
		c0.5,0.1,0.7,0.2,0.7,0.4c0,0.2-0.3,0.3-0.8,0.4c-0.8-0.2-1.4-0.3-2-0.3c0,0.2,0,0.4,0,0.6l-0.2,1.9c0,0,0,0.1,0.1,0.2l0.9,0
		c0.8,0,1.2,0.2,1.2,0.4c0,0.1-0.1,0.2-0.2,0.3c-0.2,0.1-0.4,0.1-0.6,0.1c-0.3,0-0.5-0.1-0.7-0.2l-0.7,0c0,0.3,0,0.6,0,0.9l-0.2,2.3
		C102.7,212.7,103,212.9,103.6,213z"/>
	<path class="st1" d="M110.2,209.7c-0.1,0.2-0.2,0.5-0.2,0.7c0,0.2,0.1,0.6,0.2,1.3c0.1,0.7,0.2,1.1,0.2,1.3c0,0.2-0.1,0.3-0.2,0.4
		c-0.1,0.1-0.3,0.2-0.5,0.2c-0.3,0-0.4-0.1-0.5-0.2c0-0.3,0-0.7,0-1.2c0-0.5-0.1-1.5-0.3-3.1c-0.2-1.6-0.3-2.8-0.3-3.5
		c0-0.4,0.3-0.6,0.8-0.6c0.9,0,1.7,0.1,2.3,0.3c0.6,0.2,0.9,0.5,1,1c0,0.6-0.1,1.1-0.2,1.4c-0.2,0.3-0.5,0.8-1,1.3
		c0.1,0.2,0.3,0.6,0.5,1.2c0.5,1.3,1.1,2.3,1.8,2.9c0.2,0.2,0.3,0.3,0.3,0.4c0,0.1,0,0.2-0.2,0.2c-0.1,0.1-0.2,0.1-0.4,0.1
		c-0.6,0-1.1-0.4-1.6-1.4c-0.2-0.4-0.4-0.8-0.6-1.2c-0.5-1.1-0.8-1.8-0.9-1.9C110.4,209.3,110.4,209.5,110.2,209.7z M110.1,205.4
		l-0.1,0.2c0,0.4,0,0.9,0.1,1.5c0.1,0.7,0.1,1.2,0.1,1.5c0.4-0.1,0.7-0.4,1-0.9c0.2-0.5,0.4-0.8,0.3-1c0-0.2,0-0.4-0.1-0.5
		c0-0.1-0.1-0.2-0.2-0.4C111.1,205.5,110.7,205.4,110.1,205.4z"/>
	<path class="st1" d="M117.1,212.7l1.4,0c0.3,0,0.6-0.1,0.8-0.3c0.2-0.2,0.4-0.4,0.5-0.6c0.2-0.4,0.3-0.8,0.2-1.1
		c0-0.3-0.2-0.6-0.4-0.9c-0.2-0.3-0.5-0.6-0.9-0.8c-0.3-0.2-0.7-0.5-1-0.7c-0.8-0.6-1.2-1.2-1.3-1.8c0-0.4,0.1-0.7,0.3-1.1
		c0.4-0.6,1-1,1.9-1c0.3,0,0.6,0,0.9,0.1c0.3,0.1,0.4,0.2,0.4,0.3c0,0.2-0.2,0.3-0.6,0.4c-0.2,0-0.4,0-0.6,0c-0.5,0.1-0.9,0.4-1,1
		c0,0.1,0,0.3,0,0.5c0,0.2,0.1,0.4,0.3,0.6c0.2,0.2,0.4,0.4,0.6,0.6c0.3,0.2,0.5,0.4,0.8,0.6c0.3,0.2,0.6,0.4,0.8,0.6
		c0.6,0.5,0.9,1,1,1.7c0.1,0.5-0.1,1.1-0.5,1.6c-0.2,0.3-0.5,0.5-0.9,0.7c-0.4,0.2-0.9,0.3-1.4,0.4l0,0c-0.3,0-0.6,0-0.9-0.1
		c-0.3-0.1-0.4-0.2-0.5-0.3L117.1,212.7z"/>
	<path class="st1" d="M127.1,210.7l0-0.4c-0.1-0.1-0.4-1-0.9-2.8c-0.5-1.8-0.9-2.9-1-3.3c-1,0.2-1.6,0.2-1.8,0.2
		c-0.2,0-0.4-0.1-0.4-0.2c0-0.1,0.1-0.2,0.2-0.3c0.2-0.1,0.3-0.1,0.5-0.2l3.5-0.5l0.4-0.1c0.5-0.1,0.8,0,0.9,0.2
		c0,0.1-0.1,0.2-0.2,0.3c-0.2,0.1-0.4,0.2-0.6,0.2l-1.2,0.1l0,0.1c0.2,0.8,0.5,2,1.1,3.5c0.6,1.6,0.9,2.7,1.1,3.6
		c0,0.1,0,0.2-0.2,0.3c-0.1,0.1-0.3,0.2-0.5,0.2l-0.6,0.1L127.1,210.7z"/>
	<path class="st1" d="M133.4,206.5c-0.1,0.3,0,0.5,0,0.7c0.1,0.2,0.2,0.6,0.5,1.2c0.3,0.6,0.4,1,0.5,1.2s0,0.3-0.1,0.5
		c-0.1,0.1-0.2,0.2-0.4,0.3c-0.2,0.1-0.4,0-0.5-0.1c-0.1-0.3-0.2-0.7-0.3-1.1c-0.1-0.5-0.5-1.4-1-2.9c-0.6-1.5-0.9-2.6-1.1-3.4
		c-0.1-0.4,0.1-0.7,0.7-0.8c0.9-0.2,1.6-0.3,2.3-0.3c0.7,0.1,1,0.3,1.2,0.7c0.2,0.6,0.2,1,0.1,1.4c-0.1,0.4-0.3,0.9-0.7,1.5
		c0.1,0.2,0.4,0.5,0.8,1.1c0.8,1.2,1.6,2,2.4,2.4c0.2,0.1,0.3,0.2,0.4,0.3c0,0.1,0,0.2-0.1,0.3c-0.1,0.1-0.2,0.2-0.4,0.2
		c-0.5,0.1-1.2-0.2-1.9-1c-0.3-0.3-0.6-0.7-0.9-1.1c-0.7-1-1.2-1.5-1.4-1.6C133.5,206.1,133.5,206.3,133.4,206.5z M132.3,202.4
		l0,0.2c0.1,0.3,0.2,0.8,0.5,1.5c0.2,0.6,0.4,1.1,0.4,1.4c0.4-0.2,0.6-0.6,0.7-1.1c0.1-0.5,0.2-0.9,0.1-1.1s-0.1-0.4-0.2-0.5
		c-0.1-0.1-0.1-0.2-0.3-0.3C133.3,202.2,132.9,202.2,132.3,202.4z"/>
	<path class="st1" d="M144.3,206.9l-0.9,0.3l-1.1,0.4c-0.5,0.2-0.8,0.2-1,0.1c0-0.1,0-0.2,0-0.3c0-0.1,0.1-0.2,0.3-0.2l0.7-0.3
		l0-0.2l-1.1-2.5l-0.9-2.8c-0.2-0.5-0.4-0.9-0.6-1.3c-0.3,0.1-0.7,0.2-0.9,0.3c-0.3,0.1-0.5,0.2-0.7,0.2c-0.2,0-0.2-0.1-0.3-0.2
		c-0.1-0.2,0.3-0.4,1.2-0.8l0.1,0c2.1-0.8,3.2-1,3.3-0.7c0,0,0,0.1-0.1,0.3l-1.3,0.5c0.2,0.3,0.3,0.6,0.5,1l0.7,2.4l1.1,2.5l0.1,0.4
		c0,0.1,0,0.2,0,0.4l1-0.4c0.7-0.2,1-0.3,1.1-0.1c0,0.1,0,0.2-0.1,0.3c-0.1,0.1-0.2,0.2-0.4,0.2L144.3,206.9z"/>
	<path class="st1" d="M148.3,200l1.6,3l0.6,1.3c0,0.1,0,0.2,0,0.3c-0.1,0.1-0.2,0.2-0.4,0.3c-0.5,0.2-0.9,0.1-1.1-0.3l-2-4.1
		l-0.9-2.3c-0.3-0.5-0.1-0.9,0.5-1.2c0.3-0.2,0.7-0.2,0.9,0c0.5,0.4,1.2,0.9,2.2,1.6c1,0.7,1.7,1.2,2.1,1.6c0.3,0.2,0.6,0.4,1.1,0.8
		c0.5,0.4,0.8,0.6,1,0.8c-0.7-1.7-1.7-3.8-2.9-6.2l-0.2-0.3c-0.1-0.1-0.1-0.2,0-0.3c0-0.1,0.2-0.2,0.4-0.3c0.2-0.1,0.4-0.1,0.5-0.2
		c0.3,0,0.5,0,0.6,0.2c0.5,1.1,1.1,2.5,1.8,4.2c0.7,1.7,1,2.9,1,3.4c0,0-0.1,0.1-0.2,0.1c-0.1,0.1-0.2,0.1-0.2,0.1
		c-0.4,0.3-0.7,0.4-0.8,0.4c-0.1,0-0.3-0.1-0.4-0.2c-0.1-0.1-0.2-0.2-0.3-0.3c-0.1-0.1-0.6-0.5-1.5-1.2c-2.3-1.9-3.7-3-4.1-3.3
		L148.3,200z"/>
	<path class="st1" d="M160.9,195.3l-0.4,0.2c-0.2,0.1-0.4,0.2-0.5,0.3c-0.1,0-0.2,0-0.3-0.1s0-0.2,0.1-0.4c0.1-0.1,0.2-0.3,0.4-0.4
		l0,0c1.4-0.9,2.2-1.2,2.4-1l0.3,1l0.8,1.1c0.1,0.2,0.2,0.4,0.2,0.6c-0.6,0.9-1.3,1.6-1.9,2c-0.4,0.2-0.7,0.4-1.1,0.5
		c-0.4,0.1-0.7,0.1-1.2,0c-0.4-0.1-0.9-0.3-1.5-0.9c-0.6-0.5-1-0.9-1.1-1.2c-0.2-0.3-0.3-0.5-0.4-0.6c-0.1-0.2-0.2-0.4-0.2-0.6
		c-0.1-0.2-0.1-0.4-0.2-0.5c0-0.1-0.1-0.2-0.1-0.3c-0.1-0.1-0.1-0.3-0.2-0.4c0-0.1-0.1-0.3-0.2-0.5c-0.1-0.2-0.1-0.4-0.1-0.6
		c0-0.2,0-0.3,0.1-0.6c0-0.2,0.1-0.4,0.3-0.6c0.3-0.5,0.8-0.9,1.4-1.2c0.6-0.4,0.9-0.4,1-0.3c0.1,0.1,0,0.2-0.1,0.3
		c-0.1,0.1-0.2,0.3-0.4,0.4l-0.4,0.2c-0.4,0.3-0.6,0.7-0.5,1.4c0.1,0.6,0.2,1.1,0.4,1.6c0.3,0.6,0.5,1.1,0.6,1.3
		c0.1,0.2,0.2,0.4,0.3,0.5c0.1,0.1,0.2,0.2,0.3,0.4c0.1,0.2,0.2,0.3,0.3,0.4c0.1,0.1,0.2,0.2,0.4,0.4c0.1,0.1,0.3,0.2,0.4,0.3
		c0.1,0.1,0.3,0.1,0.4,0.2c0.2,0.1,0.3,0.1,0.5,0.1c0.4,0,0.7-0.1,1.1-0.3c0.6-0.4,0.6-1.2-0.2-2.4l-0.2-0.4
		C161.2,195.1,161.1,195.1,160.9,195.3z"/>
	<path class="st1" d="M166.9,194.6l1.2-0.7c0.3-0.2,0.5-0.4,0.6-0.7c0.1-0.3,0.2-0.5,0.1-0.8c-0.1-0.5-0.2-0.8-0.4-1.1
		c-0.2-0.3-0.5-0.4-0.8-0.6c-0.4-0.1-0.7-0.2-1.1-0.2c-0.4,0-0.8-0.1-1.2-0.1c-1-0.1-1.7-0.4-2-0.9c-0.2-0.3-0.3-0.7-0.3-1.1
		c0.1-0.7,0.4-1.4,1.1-1.8c0.2-0.2,0.5-0.3,0.8-0.4c0.3-0.1,0.5-0.1,0.5,0c0.1,0.2,0,0.4-0.3,0.6c-0.2,0.1-0.3,0.2-0.5,0.3
		c-0.4,0.3-0.6,0.8-0.4,1.4c0,0.1,0.1,0.3,0.2,0.4c0.1,0.1,0.3,0.3,0.6,0.4c0.3,0.1,0.6,0.2,0.9,0.2c0.3,0,0.6,0.1,1,0.1
		c0.4,0,0.7,0.1,1,0.1c0.7,0.1,1.3,0.4,1.7,1c0.3,0.4,0.4,1,0.4,1.6c0,0.3-0.2,0.7-0.4,1c-0.2,0.4-0.6,0.7-1,1l0,0
		c-0.3,0.2-0.5,0.3-0.8,0.4c-0.3,0.1-0.5,0.1-0.6,0L166.9,194.6z"/>
	<path class="st1" d="M174.3,189.8c-0.2,0.2-0.4,0.3-0.6,0.3c-0.2,0-0.3,0-0.4-0.1c-0.1-0.1-0.1-0.2,0-0.4c0.1-0.2,0.2-0.4,0.4-0.5
		c0.2-0.2,0.4-0.3,0.6-0.3c0.2,0,0.4,0,0.4,0.1c0.1,0.1,0.1,0.2,0,0.4C174.6,189.5,174.5,189.6,174.3,189.8z"/>
	<path class="st1" d="M180.4,183.1c0.4-0.4,0.6-0.5,0.8-0.3c0.2,0.2,0,0.7-0.7,1.4c-0.3,0.3-0.6,0.5-0.9,0.8
		c-0.3,0.2-0.6,0.4-0.8,0.5c-1.1,0.5-2.2,0.2-3.4-1l-0.5-0.5c-1.7-1.8-2.3-3.3-1.8-4.4c0.3-0.6,0.8-1.3,1.6-2.1
		c0.1-0.1,0.3-0.2,0.4-0.3c0.2-0.1,0.3-0.1,0.3,0l0,0c0,0.3-0.2,0.6-0.7,1.1l-0.3,0.3c-0.2,0.2-0.3,0.4-0.4,0.7
		c-0.1,0.3,0,0.5,0,0.8c0.1,0.2,0.2,0.5,0.3,0.7c0.2,0.4,0.4,0.7,0.7,1l0,0l1.6,1.9c0.4,0.4,0.7,0.6,0.9,0.7
		c0.2,0.1,0.4,0.1,0.6,0.1c0.2,0,0.4,0,0.5-0.1c0.4-0.1,0.8-0.4,1.3-0.8C180.2,183.4,180.3,183.3,180.4,183.1z"/>
	<path class="st1" d="M185.1,173.6c1.9,1.6,2.2,3.2,0.8,4.8c-1.2,1.4-2.8,1.4-4.7,0.1c-0.2-0.1-0.4-0.3-0.5-0.4l-0.6-0.5l-0.2-0.2
		c-1.4-1.2-1.9-2.3-1.5-3.4c0.1-0.3,0.2-0.5,0.4-0.8c0.2-0.2,0.4-0.4,0.7-0.6c0.3-0.2,0.5-0.4,0.6-0.5c0.3-0.2,0.6-0.3,1.1-0.4
		c0.5-0.1,0.9,0,1.4,0.2c0.5,0.2,0.9,0.5,1.3,0.8L185.1,173.6z M179.6,175.3l0.6,0.5l0.9,0.8c0.1,0.1,0.2,0.1,0.3,0.2
		c0.1,0.1,0.3,0.2,0.5,0.3c0.2,0.1,0.4,0.3,0.6,0.4c0.2,0.1,0.4,0.2,0.6,0.4c0.2,0.1,0.5,0.2,0.7,0.3c0.2,0.1,0.4,0.1,0.6,0.2
		c0.4,0.1,0.8,0,1-0.3c0.3-0.4,0.4-0.8,0.2-1.3c-0.3-0.8-0.8-1.5-1.6-2.1l-1-0.9c-0.7-0.6-1.2-1-1.6-1.1c-0.4-0.1-0.6-0.1-0.9-0.1
		c-0.4,0-0.9,0.2-1.2,0.7c0,0,0,0,0,0C178.8,174,178.9,174.6,179.6,175.3z"/>
	<path class="st1" d="M190.6,171.2l0.3,0.2c0.1,0.1,0.2,0.2,0.2,0.3c0,0.1-0.1,0.3-0.2,0.5c-0.1,0.2-0.3,0.4-0.4,0.5
		c-0.1,0.1-0.3,0.1-0.3,0c-0.1-0.1-0.9-0.8-2.5-2.1c-1.6-1.3-2.8-2.3-3.7-2.9c-0.2-0.1-0.2-0.3-0.2-0.4c0-0.1,0.1-0.3,0.2-0.5
		c0.1-0.2,0.2-0.3,0.2-0.3c0.1,0,0.1-0.1,0.2-0.1c0.1,0,0.1,0,0.2-0.1c0,0,0.1,0,0.2,0c0.1,0,0.1,0,0.2,0c0,0,0.1,0,0.2,0
		c0.1,0,0.2,0,0.2,0.1c0.1,0,0.4,0.1,1,0.2c0.6,0.1,1.3,0.3,2.1,0.5c0.8,0.2,1.9,0.6,3.2,1c-0.9-1.2-1.7-2.4-2.6-3.4
		c-0.8-1-1.3-1.6-1.3-1.7c-0.1-0.1-0.1-0.1-0.1-0.1c0,0-0.1-0.1-0.1-0.2c0-0.1-0.1-0.1-0.1-0.2c0,0,0-0.1,0-0.2c0-0.1,0-0.2,0-0.2
		c0-0.2,0.1-0.4,0.2-0.5c0.1-0.2,0.3-0.3,0.4-0.5c0.2-0.1,0.3-0.2,0.4-0.1c1.6,1.1,2.8,1.9,3.5,2.2c0.7,0.4,1.1,0.6,1.2,0.7l1.7,1.2
		c0.1,0,0.2,0,0.3,0.1c0.1,0.1,0.1,0.2,0.2,0.4c0,0.2,0,0.4-0.2,0.5c-0.3,0.4-0.7,0.5-1.1,0.2l-1-0.7c-0.7-0.5-1.3-0.9-1.9-1.2
		c-0.3-0.2-1.2-0.8-2.5-1.8c0.5,0.7,1.2,1.6,2.1,2.7c0.9,1.2,1.3,1.8,1.4,1.8c0.1,0.1,0.1,0.1,0.2,0.2c0.1,0.1,0.1,0.1,0.1,0.2
		c0,0,0.1,0.1,0.1,0.2c0,0.1,0.1,0.2,0.1,0.2c0,0.2-0.1,0.4-0.2,0.6c-0.3,0.4-0.6,0.6-1,0.4c-0.5-0.2-1.4-0.5-2.8-0.9
		c-1.3-0.4-2.2-0.7-2.7-0.8C188,169.4,189.7,170.6,190.6,171.2z"/>
</g>
<path class="st2" d="M116.5,68.5c0.2,8.3,0.3,15.8,0.5,24c0,0.3,0,0.5,0,0.5c8.6,2.8,13.9,8.8,15.9,17.1c1.4,6-3,12.5-6.9,14.5
	c-0.7,0.4-1.8,0.7-2.4,0.6c-0.2,0-0.6-0.3-0.7-0.5c-0.1-0.1,0.2-0.5,0.3-0.6c2.7-2.5,5.1-5.3,5.7-9.1c1-5.5-2.4-13.1-8.4-16.1
	c-0.8-0.4-2-1.1-3-1.4c-0.1,0-0.6-0.2-0.6-0.1c0,3.7,0.1,8.8,0.1,12.4c0,1.6-0.2,3.2-0.4,4.7c0,0.4-0.5,1.2-0.7,1.1
	c-0.5-0.1-1.3-0.4-1.4-0.7c-0.6-1.6-1.2-3.3-1.3-5c-0.2-4.1-0.1-9-0.2-13.1c0-0.2-0.1-0.2-0.3-0.2c-3-0.1-6.4,0.2-9.4,0.2
	c-0.3,0-0.5,0-0.5,0.3c0.1,4.2,0.2,9,0.4,13.2c0,1.3,0,2.7-0.1,4c0,0.4-0.4,1.2-0.6,1.2c-0.5,0-1.4-0.2-1.5-0.5
	c-0.6-1.3-1.3-2.8-1.4-4.2c-0.3-4-0.4-9.1-0.6-13.1c0-0.1-0.7,0.1-0.8,0.1c-3.4,1.1-5.4,3.1-7.7,6c-5.4,6.9-2.3,17.1,5.9,21.5
	c7.2,3.9,24,9.4,30.4,11.9c4,1.5,9.4,5,11.7,7.6c5.2,6,7.5,15.3-0.1,24.6c-6.4,7.8-17.3,11.4-27.1,12c-13.6,0.9-26.3-4.4-32-10.1
	c-3.1-3.1-5.1-5.9-5.9-10.6c-0.7-6.2,1.2-11.8,5-16.6c1.7-2.2,3.9-4,6.1-5.8c0.5-0.5,1.8-1.2,2.3-0.6c0.5,0.5-0.3,1.5-0.7,2.1
	c-0.7,1.2-1.6,2.3-2.5,3.3c-4,4.6-4.9,8.1-5.5,12.9c-0.4,2.9,1.4,7.1,3.3,9.2c2.6,3.2,9.5,6.8,16,8.5c12.2,3.2,24.3,1.3,33.5-5.5
	c3.3-2.5,6.1-5.4,6.4-10.1c0.1-1.2-0.1-3.2-0.2-4.4c-0.9-6.4-6.9-10-10.7-11.4c-5-1.8-28.9-9.6-36.7-15.7c-6-4.7-7.5-11.7-5.8-19.4
	c1.2-4.8,5.8-9.5,9.3-11.3c1.3-0.7,3.7-1.6,5.7-1.9c0.2-0.1,0.2-0.4,0.2-0.6c-0.3-15.2-0.6-30-0.9-45.2c0-0.9,0-1.8-0.1-2.8
	c-0.2-1.9,1-3,2.4-3.9c0.9-0.6,1.7-0.2,1.7,0.9c0.1,2.9,0.1,5.8,0.1,8.7c0.1,10.2,0.3,20.3,0.4,30.5c0.1,3.8,0.1,7.5,0.2,11.3
	c0,0.2,0.1,0.5,0.1,0.5c3-0.1,6.9-0.1,9.9-0.3c0.2,0,0.2-0.3,0.2-0.5c-0.1-7.6-0.2-15.3-0.3-22.9c-0.1-7.8-0.2-15.5-0.3-23.3
	c0-0.4,0-0.7-0.1-1.1c-0.2-1.5,0.5-2.9,1.9-3.7c1.2-0.7,2-0.3,2.1,1c0.1,2.2,0.1,4.4,0.1,6.5C116.4,55.6,116.4,62,116.5,68.5
	C116.5,68.5,116.5,68.5,116.5,68.5z"/>
<g>
	<path d="M39.2,119.1c0.3,0,0.5,0.2,0.5,0.6c0,0.4-0.2,0.8-0.5,1.1c-0.4,0.3-0.7,0.5-1.2,0.5l-4.8,0c-0.6,0-1,0-1.1,0
		c-0.3-0.1-0.5-0.3-0.5-0.5c0-0.1,0.1-0.2,0.4-0.3c0.1,0,0.2,0,0.3-0.1c0.2-0.1,0.2-0.2,0.2-0.5v-6.2c0-0.3-0.2-0.5-0.5-0.5
		c-0.1,0-0.1,0-0.2,0c-0.1,0-0.1,0-0.1,0c0,0-0.1,0-0.1,0c0,0,0,0,0,0c0,0,0,0,0-0.1c0-0.1,0-0.1,0-0.2c0-0.1,0-0.2,0.1-0.3
		c0.1-0.1,0.2-0.1,0.3-0.2c0.2,0,0.6-0.1,1.2-0.1h5.3c0.3,0,0.6,0.1,0.8,0.4c0.2,0.3,0.3,0.6,0.3,0.9c0,0.6-0.2,0.9-0.7,0.9
		c-0.3,0-0.5-0.1-0.6-0.3c-0.1-0.2-0.2-0.4-0.2-0.7s0-0.5,0-0.6h-4.3v3.2h2.7c0,0,0.1-0.1,0.2-0.3c0.2-0.4,0.3-0.6,0.4-0.6
		c0.5,0,0.7,0.4,0.7,1.2c0,0.3,0,0.6-0.1,0.9c-0.1,0.3-0.3,0.4-0.5,0.4c-0.1,0-0.2,0-0.3-0.1c-0.1-0.1-0.2-0.2-0.2-0.4
		c-0.1-0.2-0.1-0.3-0.2-0.4h-2.7v3.4h4.1c0.1-0.1,0.2-0.2,0.3-0.5c0.1-0.3,0.3-0.5,0.5-0.7C38.8,119.2,39,119.1,39.2,119.1z"/>
	<path d="M45.8,120.8c1,0,1.4-0.3,1.4-0.9c0-0.4-0.4-0.8-1.3-1c-0.2,0-0.4-0.1-0.6-0.2c-0.4-0.1-0.7-0.2-0.9-0.3
		c-0.4-0.1-0.7-0.4-0.9-0.6c-0.3-0.3-0.4-0.6-0.4-1c0-0.5,0.2-0.9,0.7-1.2c0.5-0.3,1-0.5,1.7-0.5c0.6,0,1.2,0.1,1.8,0.3
		c0.3,0.1,0.5,0.3,0.7,0.5c0.2,0.2,0.3,0.4,0.3,0.6c0,0.2-0.1,0.4-0.3,0.5c-0.2,0.1-0.4,0.2-0.5,0.2c-0.2,0-0.3,0-0.4-0.1
		c-0.1,0-0.1-0.1-0.1-0.2c0-0.8-0.4-1.2-1.3-1.2c-0.4,0-0.7,0.1-0.9,0.2c-0.3,0.2-0.4,0.4-0.4,0.6c0,0.4,0.4,0.7,1.2,0.9
		c0.1,0,0.3,0.1,0.5,0.1c0.2,0,0.4,0.1,0.5,0.1c0.2,0,0.3,0.1,0.5,0.2c0.2,0.1,0.4,0.2,0.5,0.3c0.2,0.1,0.3,0.2,0.5,0.3
		c0.3,0.3,0.4,0.6,0.4,1c0,0.4-0.1,0.7-0.4,1c-0.5,0.6-1.3,0.8-2.3,0.8c-0.6,0-1.2-0.1-1.8-0.3c-0.3-0.1-0.5-0.3-0.7-0.5
		c-0.2-0.2-0.3-0.4-0.3-0.6c0-0.2,0.1-0.4,0.2-0.5c0.1-0.1,0.3-0.2,0.5-0.2c0.2,0,0.3,0.1,0.5,0.2c0.1,0.1,0.2,0.2,0.2,0.4
		c0,0.2,0,0.3,0,0.5C44.8,120.7,45.3,120.8,45.8,120.8z"/>
	<path d="M52.6,116.1l-0.4,0c-0.2,0-0.3,0-0.3,0c-0.1,0-0.1-0.1-0.1-0.2c0-0.1,0-0.2,0.1-0.3c0.1-0.1,0.2-0.1,0.3-0.2
		c0.3-0.1,0.5-0.2,0.5-0.3c0.1-0.1,0.1-0.3,0.3-0.5c0.3-0.7,0.5-1,0.7-1c0.1,0,0.2,0.1,0.2,0.3c0,0.2,0,0.4,0,0.5c0,0.1,0,0.3,0,0.5
		c0,0.2,0,0.4,0,0.5l1.5,0c0.1,0,0.3,0,0.4,0.1c0.1,0.1,0.2,0.2,0.2,0.3s0,0.2-0.1,0.3c-0.1,0.1-0.2,0.1-0.4,0.1h-1.5l0,3.2
		c0,0.9,0.2,1.4,0.7,1.4c0.1,0,0.3,0,0.6-0.1c0.2-0.1,0.4-0.1,0.5-0.1c0.2,0,0.3,0.1,0.3,0.3c0,0.2-0.2,0.3-0.6,0.5
		c-0.4,0.2-0.8,0.2-1.3,0.2s-0.8-0.2-1-0.5c-0.2-0.3-0.4-0.8-0.4-1.3V116.1z"/>
	<path d="M60.4,121.3c-0.2,0-0.4-0.1-0.5-0.2c-0.2-0.1-0.3-0.3-0.3-0.5c0-0.2,0.1-0.4,0.3-0.5c0.2-0.1,0.4-0.2,0.6-0.2
		c0.2,0,0.4,0.1,0.6,0.2c0.2,0.1,0.3,0.3,0.3,0.5c0,0.4-0.2,0.6-0.6,0.8C60.7,121.3,60.6,121.3,60.4,121.3z"/>
</g>
<g>
	<path d="M156.6,112.6c0.3-0.1,0.6-0.1,0.7-0.1s0.3,0,0.4,0.1c0.1,0.1,0.1,0.3,0.1,0.5v7.4c0,0.1,0.2,0.2,0.5,0.3c0,0,0,0,0,0
		c0,0,0,0,0.1,0c0,0,0.1,0,0.1,0c0,0,0,0,0.1,0c0,0,0.1,0,0.1,0c0,0,0,0,0.1,0c0,0,0,0,0.1,0.1c0,0.1,0.1,0.1,0.1,0.1
		c0,0.2-0.2,0.4-0.5,0.5c-0.2,0.1-0.6,0.1-1.2,0.1c-0.6,0-1,0-1.2-0.1c-0.3-0.1-0.5-0.3-0.5-0.5c0-0.1,0.1-0.2,0.3-0.2
		c0.2,0,0.3-0.1,0.5-0.1c0.2,0,0.3-0.1,0.3-0.2v-6.7c0-0.1-0.2-0.2-0.5-0.2c-0.3-0.1-0.5-0.1-0.5-0.2
		C155.4,113,155.8,112.7,156.6,112.6z"/>
	<path d="M163,121.8c-0.1,0-0.2,0-0.3-0.1c-0.1-0.1-0.1-0.2-0.1-0.3c0-0.1,0.1-0.2,0.2-0.3c1.2-0.4,2.1-0.9,2.8-1.5
		c0.6-0.6,1.1-1.3,1.4-2.1c-0.6,0.4-1.3,0.6-2,0.6c-0.9,0-1.7-0.3-2.3-0.8c-0.6-0.5-0.9-1.2-0.9-2.1c0-1.4,0.6-2.4,1.8-2.9
		c0.5-0.2,0.9-0.3,1.4-0.3c1,0,1.9,0.3,2.5,0.9c0.7,0.7,1.1,1.7,1.1,3.1c0,1.7-0.6,3-1.9,4.1c-0.4,0.3-0.8,0.6-1.2,0.8
		C164.7,121.4,163.9,121.7,163,121.8L163,121.8z M165.1,113c-0.7,0-1.2,0.2-1.6,0.6c-0.4,0.4-0.6,0.9-0.6,1.5c0,0.6,0.2,1.1,0.6,1.6
		c0.4,0.4,0.9,0.7,1.6,0.7c0.7,0,1.3-0.1,1.9-0.4c0.1-0.4,0.1-0.8,0.1-1.1c0-1.3-0.3-2.1-1-2.5C165.8,113.1,165.5,113,165.1,113z"/>
	<path d="M172.2,114.4c-0.3,0-0.5-0.1-0.7-0.2c-0.2-0.1-0.2-0.4-0.2-0.7c0-0.3,0.1-0.6,0.4-0.8c0.3-0.2,0.6-0.3,1-0.3h3.5
		c0.3,0,0.6,0,0.7,0.1c0.2,0.1,0.2,0.2,0.2,0.4c0,0.2,0,0.3-0.1,0.5c0,0.1-0.1,0.3-0.2,0.4c-0.1,0.1-0.1,0.2-0.2,0.3l-2.8,7.3
		c-0.1,0.3-0.4,0.4-0.7,0.4c-0.3,0-0.5-0.1-0.7-0.4c0-0.1-0.1-0.2-0.1-0.3c0-0.1,0-0.2,0.1-0.3l3.4-7.8h-1.7c-0.6,0-1,0.1-1.3,0.3
		c-0.3,0.2-0.4,0.5-0.5,1C172.4,114.4,172.3,114.4,172.2,114.4z"/>
	<path d="M186,120.6c-0.3,0.4-0.7,0.7-1.2,0.9c-0.5,0.2-1,0.3-1.6,0.3s-1.2-0.1-1.8-0.3c-0.6-0.2-1-0.4-1.3-0.6
		c-0.2-0.2-0.4-0.3-0.5-0.4c-0.1-0.1-0.1-0.2-0.1-0.3c0-0.1,0-0.2,0.1-0.3c0.1-0.1,0.2-0.1,0.2-0.1c0.1,0,0.3,0.1,0.5,0.2
		c0.3,0.1,0.6,0.3,1.1,0.4c0.5,0.1,0.9,0.2,1.4,0.2c0.7,0,1.2-0.2,1.5-0.5c0.3-0.3,0.5-0.7,0.5-1.2c0-0.5-0.2-1-0.7-1.4
		c-0.5-0.4-1.1-0.6-1.9-0.6c-0.6,0-1.3,0.1-2,0.2l1-4.2l1.5,0.1c1.6,0,2.4-0.3,2.6-0.8l0.1,0c0.2,0,0.4,0.1,0.5,0.2
		c0.1,0.2,0.2,0.4,0.2,0.6c0,0.4-0.1,0.6-0.4,0.8c-0.3,0.2-0.7,0.2-1.1,0.2h-2.7l-0.5,2.3c0.5,0,1-0.1,1.4-0.1
		c1.1,0,1.9,0.3,2.5,0.8c0.6,0.5,0.9,1.3,0.9,2.2C186.5,119.7,186.3,120.1,186,120.6z"/>
</g>
<g>
	<path d="M93.7,55.9c0-1.5-0.9-2.6-2.1-2.6c-1.2,0-2.1,1-2.1,2.3c0,1.4,0.9,2.5,2.1,2.5C93,58.2,93.8,57.4,93.7,55.9z M125.3,67.2
		c0-1.4-0.8-2.4-2-2.3c-1.3,0-2.2,1-2.2,2.4c0,1.3,0.8,2.1,2.2,2.1C124.5,69.4,125.3,68.5,125.3,67.2z M94.4,67
		c0-1.4-0.7-2.3-1.8-2.3c-1.3,0-2.3,1.1-2.3,2.6c0,1.3,0.7,2.1,2,2.1C93.6,69.4,94.4,68.5,94.4,67z M93.6,43.5
		c0-1.3-0.8-2.3-1.8-2.3c-1.2,0-2.1,1.2-2.1,2.5c0,1.3,0.8,2.1,1.9,2.2C92.8,45.9,93.6,45,93.6,43.5z M121.2,55.8
		c0,1.3,0.8,2.2,1.9,2.2c1.2,0,2.1-0.9,2.1-2.2c0-1.2-0.9-2.2-1.9-2.2C122.2,53.6,121.2,54.6,121.2,55.8z M123.1,45.7
		c1.2,0,2.1-0.9,2.1-2.1c0-1.3-0.8-2.2-2-2.2c-1.2,0-2,0.9-2,2.2C121.2,44.9,122,45.7,123.1,45.7z"/>
	<path class="st2" d="M93.7,55.9c0,1.4-0.8,2.2-2.1,2.2c-1.2,0-2.1-1.1-2.1-2.5c0-1.3,0.9-2.3,2.1-2.3
		C92.9,53.4,93.7,54.4,93.7,55.9z"/>
	<path class="st2" d="M125.3,67.2c0,1.4-0.8,2.2-2.1,2.2c-1.4,0-2.2-0.8-2.2-2.1c0-1.4,0.9-2.4,2.2-2.4
		C124.5,64.8,125.3,65.8,125.3,67.2z"/>
	<path class="st2" d="M94.4,67c0,1.5-0.8,2.4-2.1,2.4c-1.2,0-2-0.8-2-2.1c0-1.5,0.9-2.6,2.3-2.6C93.7,64.7,94.4,65.7,94.4,67z"/>
	<path class="st2" d="M93.6,43.5c0,1.4-0.8,2.3-2.1,2.3c-1.1,0-1.9-0.9-1.9-2.2c0-1.3,1-2.5,2.1-2.5C92.8,41.2,93.6,42.2,93.6,43.5z
		"/>
	<path class="st2" d="M121.2,55.8c0-1.2,0.9-2.2,2.1-2.2c1.1,0,1.9,1,1.9,2.2c0,1.3-0.9,2.2-2.1,2.2C122,58,121.2,57.1,121.2,55.8z"
		/>
	<path class="st2" d="M123.1,45.7c-1.1,0-1.9-0.8-1.9-2.1c0-1.3,0.8-2.2,2-2.2c1.1,0,2,0.9,2,2.2C125.2,44.8,124.4,45.7,123.1,45.7z
		"/>
</g>
</svg>
