<?xml version="1.0" encoding="utf-8"?>
<!-- Generator: Adobe Illustrator 22.1.0, SVG Export Plug-In . SVG Version: 6.00 Build 0)  -->
<svg version="1.1" xmlns="http://www.w3.org/2000/svg" xmlns:xlink="http://www.w3.org/1999/xlink" x="0px" y="0px"
	 viewBox="0 0 720 576" style="enable-background:new 0 0 720 576;" xml:space="preserve">
<style type="text/css">
	.st0{fill:#17753C;}
	.st1{fill:#52C5D1;}
	.st2{fill:#53C5D1;}
	.st3{fill:#54C5D1;}
</style>
<g id="Layer_1">
</g>
<g id="Layer_2">
	<path class="st0" d="M620.4,224c-0.3,0.3-0.9,0-1.3,0c-2.2,0.1-4.2-0.8-6.3-2c-6.7-4-12.8-9.5-19.1-14.6c-4-3.3-8.4-4.7-12.9-5.5
		c-2.7-0.5-5.4-1.2-7.9-2.6c-1.9-1.1-3.6-3.3-5.1-5.5c-3.2-4.6-6.9-6.8-11.1-7.7c-4.9-1-9.7-1.2-14.6-1.1
		c-6.8,0.2-13.5-1.1-20.2-2.9c-6.3-1.8-12.7-1.9-19.1-2.1c-2.7-0.1-5.4,0.1-8.1-0.7c-3.7-1.1-7.2-2.7-10.8-4.5
		c-2.4-1.2-4.6-3.4-7-4.4c-6.7-2.6-13.4-4.8-20.4-4.9c-0.8,0-1.6-0.3-2.5-0.4c-5.1-1-9.8,1.3-14.4,4.2c-1.9,1.2-3.8,2.7-5.4,4.6
		c-2.7,3.1-5.7,4.3-8.9,5c-5.5,1.2-10.9,2.9-15.8,7.3c-0.8,0.7-1.6,1.1-2.4,1.7c-4.9,3.9-10.1,4.8-15.4,5.1
		c-8.6,0.6-17.2,1.2-25.7,2.1c-6.4,0.7-13,0.9-19.3,2.9c-7,2.1-14.1,1.6-21.1,3.1c-9.1,2.1-18.1,5.1-27.1,8.3
		c-6.8,2.4-13.6,5-20.5,7c-7.2,2.2-14.4,2.4-21.7,1.6c-5.7-0.7-11.5-1.5-17.2-2c-3.2-0.3-6.4,0.7-9.4,3.2c-2.6,2.2-5.5,2.7-8.4,3
		c-5.6,0.7-11.2,1-16.8,2.5c-3.2,0.9-6.6,0.6-9.9,0.7c-2.9,0.1-5.8-0.1-8.7,0c-10.4,0.5-20.9,0.9-31.3,1.7c-5.5,0.4-11,1.5-16.5,2.3
		c-0.7,0.1-1.3,0.3-1.9,0.8c-6.9,4.8-14,9-20.8,14.6c-4.8,4-9.9,7.4-14.8,11.1c-1,0.8-1.7,3.5-3.1,2.9c-3-1.3,0-6.4,0-9.4
		c0-0.4,0.3-1,0.5-1.2c1.2-1.1,2.5-2.1,3.8-3c0.5-0.4,1-0.6,1.5-1c5-3.8,10-7.8,15-11.5c3.5-2.6,7.1-4.9,10.6-7.2
		c1.5-1,3-2.2,4.6-2.9c2.8-1.1,5.5-2.3,8.4-2.6c9-1,18-1.9,27.1-2.5c8.8-0.5,17.6-0.7,26.4-0.8c7-0.1,14-1.1,20.9-2.5
		c2.8-0.6,5.5-0.8,8.3-1.4c1-0.2,2.1-0.8,3.1-1.5c5-4.1,10.5-4.3,15.9-3.8c8.1,0.8,16.2,3.1,24.4,2.2c5.4-0.6,10.7-2.1,16-4.1
		c9.8-3.7,19.7-7.3,29.6-10.2c6.8-2,13.6-4,20.6-4c5.1,0,10-1.9,15-2.9c3.3-0.6,6.7-1,10-1.4c6.4-0.7,12.8-1.3,19.2-1.8
		c3.3-0.3,6.6-0.3,9.9-0.7c3.9-0.5,7.8-0.8,11.6-2c2.7-0.9,5.3-2.7,7.7-4.8c4.9-4.1,10.2-6.3,15.6-7.3c3.9-0.7,7.2-3.3,10.5-6.6
		c3.4-3.4,7.2-5.3,11.1-6.5c0.8-0.3,1.6-0.4,2.4-0.7c2.7-1.2,5.3-0.8,8-0.3c3.5,0.6,7.2,0.5,10.6,1.5c5.1,1.4,10.4,2.6,15.2,5.5
		c4.5,2.7,9.1,4.6,13.6,6.7c2,1,4.3,0.8,6.4,1c5.4,0.4,10.8,0.4,16.2,1c3.6,0.4,7.1,1.6,10.7,2.4c6.1,1.4,12.2,1.9,18.4,1.6
		c5-0.2,10,0.4,14.8,2.3c3.8,1.4,7.3,4,10.1,8.6c2.5,4,5.6,5.7,9,5.9c7.9,0.6,15.1,4.9,21.7,11.3c4.5,4.4,9.5,6.9,14.3,10.2
		c1.2,0.8,3.1-0.3,4,0.7C622.3,217.5,622.5,222,620.4,224z"/>
	<path class="st1" d="M107.9,190.3c0.2-7.3,3-13.5,6.5-19.5c4.9-8.3,11-15.7,17-23.2c8.6-10.8,17.2-21.5,25.9-32.2
		c1.3-1.6,2.6-3.1,3.8-4.7c0.9-1.1,1.9-1.1,2.9-0.1c3.1,3.4,5.8,7.2,7.4,11.5c1.1,3,0.4,6.1-1.5,8.7c-3.9,5.4-7.9,10.8-12,16.2
		c-7.7,10.2-15.6,20.3-23.3,30.5c-4.5,6.1-8.8,12.4-11,19.8c-0.5,1.7-0.8,3.4-1.1,5.1c-0.3,1.2,0.3,1.6,1.5,1.7
		c6.8,0.4,12.6-2.1,18.2-5.6c7.2-4.6,13.3-10.6,19-17c13.1-14.5,23.1-31.1,32-48.4c2-3.9,3.9-7.9,5.9-11.8c0.3-0.6,0.9-1,1.4-1.5
		c0.5,0.5,1.1,0.8,1.3,1.4c1.3,3.2,3.9,6.2,3,10c-0.7,2.9-1.7,5.8-2.9,8.6c-6.5,14.9-14.1,29.2-23.2,42.6
		c-5.4,7.9-11.4,15.3-18.3,21.9c-5.3,5.1-11,9.7-18.3,11.8c-9.5,2.8-17.9,0.8-25.1-6.1c-3.4-3.2-6.4-6.7-7.6-11.3
		C108.8,196,108.4,193.1,107.9,190.3z"/>
	<path class="st2" d="M541.5,128.1c-2.6,2.2-5.3,4.3-7.7,6.6c-8.1,7.6-15.3,16-21.9,24.8c-2.6,3.4-6.2,4.7-10.5,6
		c0.3-1,0.4-1.7,0.8-2.3c6.3-10.7,13.5-20.6,21.7-29.9c6.4-7.2,13.2-13.9,20.9-19.7c2-1.5,4.1-2.1,6.5-1.3c1.8,0.6,3.6,1,5.3,1.7
		c2.5,1.1,3,2.7,1.7,5.1c-3.4,6.4-6.5,12.9-8.8,19.8c-0.2,0.6-0.3,1.1-0.2,1.9c2-1.8,4-3.6,6-5.4c6.6-5.8,13.5-11.2,21-15.7
		c1.8-1.1,3.4-1.4,5.3-0.2c1.2,0.8,2.5,1.4,3.8,2.1c0.8,0.5,1.6,0.9,2.3,1.5c2.8,2.3,2.9,4,0.6,6.8c-3.1,3.8-6.4,7.5-9.2,11.4
		c-5.4,7.5-10.6,15.1-15.7,22.8c-1.4,2.1-3.1,3.4-5.7,3.3c-1.4-0.1-2.8,0.2-4.2,0.3c-1.9,0.1-2.2-0.2-1.4-1.8
		c3.3-6.6,6.5-13.1,9.9-19.6c2.1-4,4.6-7.8,6.9-11.7c0,0,0.1,0,0.1-0.1c0,0,0-0.1,0-0.1c0,0.1-0.1,0.1-0.1,0.2
		c-2,1.3-4.1,2.4-5.9,3.8c-7.9,5.9-15.2,12.3-21.5,20c-0.8,1-1.8,1.4-3,0.7c-1.5-0.9-3-1.9-4.3-3c-1.8-1.6-2.4-3.7-1.6-5.9
		c1.4-4.1,3-8.2,4.7-12.2c1.4-3.3,2.9-6.5,4.4-9.7c0-0.2,0.1-0.3,0.1-0.5C541.7,127.8,541.6,127.9,541.5,128.1z"/>
	<path class="st2" d="M215.2,147.5c-2.2-0.7-2.4-2.5-2.5-4.3c-0.1-1.7-0.1-3.5-0.1-5.3c0-2.3,0.6-3.2,2.8-3.8c2.2-0.6,4.5-1,6.8-1.3
		c1.7-0.2,3.1-0.6,3.9-2.4c0.5-1.1,1.3-2.1,2.1-3.1c0.9-1.1,1.9-1.3,3-0.3c1.6,1.4,3.6,2.5,4.3,4.7c0.1,0.4,1,0.6,1.6,0.7
		c4.1,0.8,7.8,2.2,10.6,5.6c3.5,4.3,3.8,9.4,2.7,14.5c-1.3,6.3-4.6,11.6-8.7,16.4c-5,5.9-10.7,10.7-17.8,13.8c-2.3,1-4.8,1.6-7.2,2
		c-2.6,0.5-4.5-0.8-5.5-3.2c-0.3-0.7-0.6-1.3-1.1-2.1c-0.5,0.7-0.9,1.3-1.3,1.9c-5.1,7.1-10.2,14.1-15.3,21.2
		c-1.4,1.9-3.2,2.8-5.7,2.8c-2.4,0-4.8,0.3-7.2,0.4c-0.6,0-1.2-0.2-1.9-0.3c0.2-0.6,0.3-1.2,0.6-1.7c11.8-18.4,23.6-36.7,35.4-55.1
		C214.8,148.3,214.9,148,215.2,147.5z M214.2,172.6c1.5-0.4,2.6-0.6,3.6-1c7.8-2.8,14.5-7.4,20.2-13.4c2.9-3,5.4-6.4,6.9-10.4
		c1-2.7,0.7-3.2-2-4.1c-0.2-0.1-0.4-0.1-0.6-0.2c-3.5-1-6.9-0.5-10.4-0.1c-0.9,0.1-1.4,0.5-1.9,1.3c-4.7,8.4-9.4,16.7-14.2,25
		C215.3,170.6,214.9,171.4,214.2,172.6z"/>
	<path class="st2" d="M368.6,152c-3.8,6.1-7.8,11.8-11.1,17.8c-3.8,6.9-10.1,9.7-17.1,11.6c-0.1,0-0.2,0-0.6-0.2
		c0.2-0.8,0.3-1.8,0.7-2.5c10.5-19,21.1-37.8,33.3-55.8c0.3-0.4,0.3-1.2,0.1-1.7c-0.6-2.2-1.4-4.4-2-6.6c-0.4-1.4,0.2-2.5,1.6-2.8
		c4.5-1.1,9-2.4,13.5-3c3.5-0.4,7.2-0.3,10.7,0.3c2.3,0.4,4.7,1.6,6.7,2.9c3.9,2.6,4.5,6.6,3.4,10.9c-1,4.2-3.3,7.6-6.1,10.8
		c-5,5.6-11,10-17.6,13.4c-0.7,0.4-1.5,0.7-2.3,1.2c1.4,2.6,2.9,5.1,4.2,7.6c1.1,2.1,2.2,4.3,3.2,6.5c1,2.3,0.9,4.5-0.6,6.6
		c-1.1,1.4-2,3-3.2,4.3c-1,1.1-1.6,1-2.3-0.4C379.1,165.6,373.8,158.9,368.6,152z M375.4,140.8c0.9-0.3,1.4-0.4,1.9-0.5
		c6.2-2.4,11.8-5.8,16.9-10.1c3.5-2.9,6.8-6.1,8.7-10.3c1-2.3,0.8-2.9-1.7-3.4c-6-1.1-11.5,0.8-17.2,2.6c3.5,3.4,2.8,3.1,0.9,6.3
		C381.8,130.4,378.7,135.4,375.4,140.8z"/>
	<path class="st2" d="M492.5,155.1c0.9-9.7,3.1-18.8,5.5-28.2c-3,1-5.8,1.9-8.4,3c-5,2.1-9.9,4.3-14.8,6.6c-1,0.5-1.9,1.3-2.5,2.1
		c-2.1,3-4.1,6.1-5.9,9.2c-0.7,1.3-1.1,2.8-1.5,4.2c-0.3,1.1-0.9,1.5-1.9,1.2c-2.9-0.8-5.5-2.2-7.4-4.5c-1.2-1.5-1.2-3.4-0.3-5
		c1.9-3.3,3.8-6.7,6.2-9.7c9.5-12.1,20.4-22.9,32.8-32c2.9-2.1,6-3.8,9.1-5.6c2.1-1.2,4.4-1.4,6.7-0.5c1.7,0.7,3.5,1.1,5.3,1.7
		c0.5,0.2,1.1,0.4,1.6,0.7c1.8,1,2.2,2.3,1.2,4.1c-1.1,1.9-2.3,3.7-3.3,5.6c-1.9,3.6-3.6,7.2-5.4,10.8c-0.4,0.8-0.4,1.2,0.4,1.8
		c0.7,0.5,1.3,1.3,2.2,2.3c-1.4,0.4-2.4,0.8-3.4,1c-1,0.2-1.7,0.7-2,1.8c-2.3,7.3-4.9,14.6-7,21.9c-0.9,3.1-2.4,5.5-5.4,6.9
		C493.8,154.7,493.4,154.8,492.5,155.1z M483.7,125.2c0.5-0.1,0.9-0.1,1.4-0.2c4.4-1.2,8.8-2.4,13.3-3.5c1-0.2,1.4-0.7,1.7-1.6
		c1.5-4.3,3.1-8.5,4.7-12.7c0.1-0.2,0.1-0.5,0.2-1c-0.4,0.3-0.6,0.4-0.8,0.5c-3.8,3-7.6,6-11.3,9.2
		C489.7,118.8,486.8,122.1,483.7,125.2c-0.1,0-0.1,0.1-0.2,0.2C483.6,125.4,483.7,125.3,483.7,125.2z"/>
	<path class="st2" d="M412.3,156.7c0.9-0.2,1.8-0.3,2.7-0.5c8.1-2.2,16.2-4.5,24.3-6.7c0.5-0.1,1.1-0.1,1.6-0.2
		c0.4,1.9-0.4,4.4-1.8,5.1c-10,4.8-20.1,9.3-30.7,12.8c-2.9,0.9-4.7-0.1-6.8-2.1c-3.3-3.2-3.1-6.1-1.1-9.9c6.4-12.4,14-24,22-35.3
		c1.2-1.8,2.5-3.5,3.9-5.5c-3.6,0.3-4.7-2.1-5.7-4.6c-0.4-1-0.1-1.4,0.9-1.6c3.4-0.7,6.8-1.4,10.1-2.2c0.7-0.2,1.4-0.6,1.9-1.1
		c0.9-1,1.7-2.2,2.6-3.3c1.3-1.4,2.4-1.5,3.9-0.5c0.2,0.1,0.5,0.2,0.6,0.4c2.1,2.6,4.9,2.3,7.9,2c7-0.7,14-1.2,20.9-1.8
		c0.5,0,1,0,1.5,0c0.1,2.1-0.8,3.3-2.8,3.7c-7.2,1.5-14.4,3-21.7,4.3c-3.3,0.6-5.6,1.8-7.3,4.8c-2.5,4.2-5.4,8.2-8.1,12.3
		c-0.3,0.5-0.6,0.9-1,1.5c7.2-1.3,14.2-2.6,21.6-4c-1.2,3.2-2.9,5.1-5.7,5.9c-6.7,1.9-13.4,3.9-20,5.8c-0.6,0.2-1.2,0.4-1.5,0.9
		C420.5,143.4,416.4,150.1,412.3,156.7C412.3,156.7,412.2,156.7,412.3,156.7c-0.1,0.1-0.1,0.1-0.1,0.2
		C412.2,156.8,412.3,156.7,412.3,156.7z"/>
	<path class="st2" d="M254.1,198.6c-5.7,0.3-9.8-5.1-11-9c-0.4-1.3,0.1-1.9,1.5-2c7.8-0.5,15.3-2.3,22-6.5c1.9-1.2,3.7-2.7,5.1-4.5
		c2.8-3.4,2.3-6.4-1.4-8.8c-1.8-1.2-3.7-2.3-5.5-3.5c-4.4-2.9-5.7-6.4-4.5-11.6c1.1-4.8,3.7-8.7,6.8-12.4
		c7.6-8.9,16.4-16.5,26.6-22.2c2.6-1.5,5.3-2.9,8.4-2.7c1.2,0.1,2.6,0.4,3.3,1.2c1.6,1.8,3.1,3.8,4.3,6c0.9,1.7,0.5,2.3-1.2,3.2
		c-12.5,6.7-24.1,14.7-34.2,24.8c-1.4,1.4-2.6,3-3.5,4.7c-2.1,3.6-1.4,6.4,2.1,8.7c1.3,0.8,2.7,1.6,4,2.4c5.7,3.5,7,8.1,4.1,14.1
		c-2.1,4.2-5.2,7.5-8.9,10.4c-4.6,3.6-9.7,6.3-15.5,7.4C255.8,198.5,255,198.5,254.1,198.6z"/>
	<path class="st2" d="M295.2,190.7c12-20.9,23.9-41.7,35.9-62.6c-0.1-0.1-0.1-0.2-0.2-0.3c-6.4,2.1-12.7,4.2-19,6.3
		c-0.2-0.3-0.3-0.4-0.3-0.5c1-3.4,1.8-7,4.4-9.6c1.2-1.2,2.8-2.2,4.4-2.7c5.1-1.5,10.2-2.9,15.4-4.1c1.5-0.4,2.4-1,3.1-2.4
		c1.7-3.3,2.1-3.6,5.1-1.6c2.7,1.8,5.2,1,7.8,0.5c2.1-0.3,4.2-0.8,6.2-1c3-0.4,5.5,1.1,7.8,2.7c1.1,0.8,0.4,1.4-0.6,1.7
		c-3.7,1.1-7.3,2.2-11,3.3c-0.6,0.2-1.2,0.5-1.8,0.5c-4,0.5-6,3-7.9,6.4C334,146.4,323,165.3,311,183.5c-1.8,2.8-3.9,4.8-7.3,5.4
		c-2.1,0.4-4.1,1.3-6.2,1.9c-0.6,0.2-1.3,0.3-1.9,0.4C295.4,191,295.3,190.8,295.2,190.7z"/>
	<path class="st3" d="M489.3,223.4c5.3,0.2,10.2,0.4,15.1,0.5c0,2.9-0.5,3.7-2.8,4.1c-4.4,0.7-8.8,1.3-13.2,2
		c-2,0.3-3.5-0.4-4.3-2.4c-0.3-0.6-0.6-1.2-0.9-1.8c-1-1.6-0.9-3.2-0.2-4.9c3.1-7.5,7.3-14.3,11.7-21.1c1.4-2.2,2.9-4.4,4.4-6.7
		c-2.2-0.5-2.5-2.4-3.1-4.2c-0.3-1-0.1-1.7,1.1-1.8c1.7-0.1,3.4-0.5,5.1-0.5c1.3,0,2-0.5,2.7-1.4c0.4-0.6,0.9-1.3,1.3-1.9
		c1.1-1.3,2.1-1.4,2.8,0.1c1.2,2.8,3.3,3.3,6.1,3.5c4.2,0.3,8.4,1.2,12.5,1.9c0.3,0,0.6,0.2,0.8,0.3c-0.3,2.4-1.1,3.2-3.3,3.2
		c-4.9,0-9.9,0-14.8,0.1c-0.6,0-1.4,0.1-1.6,0.5c-2.8,4-5.5,8.1-8.3,12.3c4.3,0.4,8.4,0.7,12.4,1.1c-0.6,2.8-2.1,3.9-4.7,4
		c-3.4,0.1-6.9,0.3-10.3,0.5c-0.4,0-0.9,0.2-1.1,0.5C494.2,215.2,491.8,219.2,489.3,223.4z"/>
	<path class="st3" d="M430.4,219.6c0.5,2.2-0.2,3.7-1.6,4.8c-3.4,2.9-6.7,5.8-10.1,8.7c-2.2,1.9-4.5,3.8-6.7,5.8
		c-1.9,1.7-4.1,1.8-6.4,1.7c-1.2,0-1.8-0.8-2-2c-0.7-3.4-0.2-6.8,0.6-10.1c2-9.4,4.1-18.7,6.2-28.1c0.8-3.8,1.7-7.5,2.6-11.3
		c0.5-2.1,1.2-2.7,3.3-2.7c0.8,0,1.7-0.1,2.5,0c2.1,0.3,2.9,1.2,2.7,3.3c-0.2,2-0.5,4-1,5.9c-2.2,8.8-4.6,17.6-6.7,26.4
		c-0.7,2.9-1,5.9-1.3,9C418.3,226.9,423.9,222.8,430.4,219.6z"/>
	<path class="st3" d="M492.6,183.5c0.6,2.4-0.3,3.7-1.3,5.1c-5.4,7.3-10.9,14.4-16,21.8c-3.5,5.1-6.5,10.5-9.7,15.8
		c-1.1,1.8-1.7,2-3.6,0.9c-2.6-1.5-3.8-3.8-3.4-6.7c0.8-6.2,1.7-12.4,2.9-18.5c1-5,2.6-10,4-14.9c0.6-2,1-2.1,2.9-1.3
		c2.7,1.2,3.7,3.1,3.1,6c-1.3,6-2.7,12-4,17.9c-0.5,2.1-0.8,4.2-1,6.4C474.1,204.5,482.6,193.7,492.6,183.5z"/>
	<path class="st3" d="M434,228.7c0.7-2.3,1.2-4.7,2-6.9c4.1-11.3,8.2-22.5,12.3-33.7c0.9-2.4,3.3-3,5.4-1.5c0.5,0.4,1,1.3,0.9,1.9
		c-0.1,1.2-0.4,2.3-0.8,3.4c-4,10.6-8,21.3-11.9,31.9c-0.6,1.6-1.5,2.6-3,3.2c-1.6,0.6-3,1.3-4.6,2C434.3,229,434.1,228.9,434,228.7
		z"/>
	<g>
		<path d="M226.6,93c0,0.2-0.1,0.3-0.3,0.3c-0.1,0-0.2-0.1-0.4-0.3c-0.2-0.3-0.4-0.5-0.6-0.8c-0.8-0.9-1.6-1.4-2.3-1.4
			c-0.4,0-0.7,0.1-1,0.2c-0.3,0.2-0.4,0.2-0.4,0.2c-0.1,0-0.1,0-0.1-0.1c0,0,0,0,0-0.1s0,0,0,0c0,0,0-0.1,0.1-0.3
			c0-0.1,0.1-0.2,0.1-0.3c0-0.1-0.1-0.2-0.2-0.2h-0.4c-0.6,0-1.1,0.3-1.4,0.8c-0.3,0.4-0.5,0.7-0.7,0.9c-0.2,0.2-0.5,0.3-0.8,0.3
			c-0.5,0-0.7-0.3-0.7-1c0-0.1,0-0.3,0.1-0.5c0.1-0.2,0.1-0.4,0.1-0.5c0-0.2-0.1-0.2-0.3-0.2c-0.3,0-0.7,0.1-1.1,0.3
			c-0.5,0.2-0.8,0.5-1,0.8c0,0-0.1,0.1-0.1,0.3c0,0.1-0.1,0.1-0.1,0.1c-0.2,0-0.2-0.1-0.2-0.4V91c-0.2,0.1-0.4,0.4-0.6,0.9
			c-0.2,0.8-0.6,1.1-1.1,1.1c-0.3,0-0.5-0.1-0.7-0.4c-0.2-0.2-0.3-0.5-0.3-0.9c0-0.1,0-0.3,0.1-0.5c0.1-0.2,0.1-0.4,0.1-0.4
			c0-0.1-0.1-0.1-0.2-0.1c-0.2,0-0.5,0.1-0.9,0.4c-0.6,0.3-1.1,0.7-1.6,1.2c-0.2,0.2-0.3,0.4-0.5,0.5c-0.2,0.2-0.3,0.3-0.4,0.3
			c-0.2,0-0.3-0.1-0.3-0.2c0-0.1,0.1-0.3,0.4-0.6c0.3-0.3,0.7-0.6,1.2-0.9c0.3-0.2,0.8-0.5,1.3-0.7c0.3-0.1,0.4-0.2,0.4-0.3
			c0-0.1,0-0.1-0.1-0.1h-0.2c-0.1,0-0.3,0-0.5,0c-0.2,0-0.4,0-0.5,0c-0.5,0-1-0.2-1.4-0.5c-0.4-0.3-0.6-0.7-0.6-1.2
			c0-0.2,0.1-0.2,0.3-0.2c0.2,0,0.4,0.2,0.6,0.5l0.4,0.7c0.2,0.2,0.8,0.4,1.8,0.4c0.6,0,1.4-0.1,2.3-0.4c0.4-0.1,0.9-0.3,1.3-0.4
			c0.7-0.2,1.4-0.3,2.2-0.3c0.7,0,1.8,0.2,3.2,0.5c1.6,0.4,3,0.8,4,1.4C225.9,91.4,226.6,92.2,226.6,93z"/>
		<path d="M229.1,93.7l0.1-4.1c0-1.8-0.1-3.2-0.3-4.1c0.1-0.2,0.3-0.3,0.4-0.3c0.3,0,0.5,0.1,0.8,0.2c0.2,0.1,0.4,0.3,0.6,0.5
			c0.3,0.4,0.5,0.9,0.5,1.5c0,0.6-0.1,1.1-0.4,1.5c-0.2,0.5-0.6,0.8-1.1,1.1l0.1,3.6c0,0.3-0.1,0.5-0.4,0.5c-0.1,0-0.2,0-0.2-0.1
			C229.2,93.9,229.1,93.8,229.1,93.7z M229.7,89.5c0.6-0.6,0.9-1.2,0.9-1.9v0c0-0.6-0.1-0.9-0.3-1.1c-0.1-0.1-0.4-0.3-0.7-0.5
			c0,0.4,0,1,0.1,1.8C229.7,88.5,229.7,89.1,229.7,89.5z"/>
		<path d="M232.8,90.7c-0.1,0.2-0.1,0.4-0.1,0.6c0,0.2,0,0.6,0.1,1.2c0,0.6,0.1,1,0.1,1.1s0,0.3-0.1,0.4c-0.1,0.1-0.1,0.1-0.2,0.1
			c-0.1,0-0.2-0.1-0.2-0.2c0-0.3,0-0.6,0-1c0-0.4,0-1.3-0.1-2.7c-0.1-1.4-0.1-2.5-0.1-3.1c0-0.4,0.1-0.5,0.4-0.5
			c0.4,0,0.7,0.1,1,0.3c0.3,0.2,0.4,0.5,0.4,0.9c0,0.5,0,0.9-0.1,1.2c-0.1,0.3-0.2,0.7-0.5,1.1c0,0.2,0.1,0.6,0.2,1.1
			c0.2,1.2,0.5,2,0.7,2.6c0.1,0.2,0.1,0.3,0.1,0.4c0,0.1,0,0.2-0.1,0.2c0,0.1-0.1,0.1-0.2,0.1c-0.3,0-0.5-0.4-0.7-1.3
			c-0.1-0.4-0.2-0.7-0.2-1.1c-0.2-1-0.3-1.6-0.4-1.7C232.8,90.3,232.8,90.4,232.8,90.7z M232.7,86.8l0,0.2c0,0.3,0,0.8,0,1.4
			c0,0.6,0,1,0,1.3c0.2-0.1,0.3-0.3,0.4-0.7c0.1-0.4,0.2-0.7,0.2-0.9c0-0.2,0-0.4,0-0.5s0-0.2-0.1-0.3C233.2,87,233,86.8,232.7,86.8
			z"/>
		<path d="M236.4,93.6l0.5,0c0.3,0,0.4,0.1,0.4,0.3c0,0.1-0.1,0.2-0.2,0.3s-0.2,0.1-0.3,0.1h-1.1c-0.1,0-0.2,0-0.3-0.1
			c-0.1-0.1-0.1-0.2-0.1-0.3c0-0.1,0-0.2,0-0.4c0-0.2,0-0.3,0-0.4l-0.1-1.5l0.1-3.4l-0.1-1c0-0.5,0.2-0.8,0.5-0.8
			c0.1,0,0.2,0,0.3,0.1c0,0,0.1,0,0.2,0s0.2,0,0.3,0c0.1,0,0.2,0,0.3,0.1c0.2,0.1,0.3,0.2,0.3,0.3c0,0.2-0.1,0.3-0.3,0.4
			c-0.4-0.1-0.6-0.2-0.9-0.2c0,0.2,0,0.3,0,0.5l-0.1,1.7c0,0,0,0.1,0,0.2l0.4,0c0.4,0,0.6,0.1,0.6,0.3c0,0.1,0,0.2-0.1,0.3
			c-0.1,0.1-0.2,0.1-0.3,0.1s-0.2,0-0.3-0.1H236c0,0.3,0,0.6,0,0.8L236,93C236,93.4,236.1,93.6,236.4,93.6z"/>
		<path d="M238.1,93.6l0.6,0.1c0.1,0,0.3-0.1,0.4-0.2c0.1-0.1,0.2-0.3,0.2-0.5c0.1-0.4,0.2-0.7,0.2-1c0-0.3,0-0.6-0.1-0.8
			c-0.1-0.3-0.2-0.5-0.3-0.8c-0.1-0.2-0.3-0.5-0.4-0.7c-0.3-0.6-0.5-1.2-0.5-1.7c0-0.3,0.1-0.6,0.2-0.9c0.2-0.5,0.5-0.7,0.9-0.7
			c0.1,0,0.3,0,0.4,0.1c0.1,0.1,0.2,0.2,0.2,0.3c0,0.2-0.1,0.3-0.3,0.3c-0.1,0-0.2,0-0.2-0.1c-0.2,0-0.4,0.3-0.5,0.8
			c0,0.1,0,0.3,0,0.4s0,0.3,0.1,0.6s0.2,0.4,0.3,0.6c0.1,0.2,0.2,0.4,0.3,0.6c0.1,0.2,0.2,0.4,0.3,0.6c0.2,0.5,0.4,1,0.4,1.6
			c0,0.5-0.1,0.9-0.3,1.3c-0.1,0.2-0.2,0.4-0.4,0.5c-0.2,0.1-0.4,0.2-0.6,0.2v0c-0.1,0-0.3-0.1-0.4-0.1c-0.1-0.1-0.2-0.2-0.2-0.3
			V93.6z"/>
		<path d="M242.1,93.6l0.5,0c0.3,0,0.4,0.1,0.4,0.3c0,0.1-0.1,0.2-0.2,0.3c-0.1,0.1-0.2,0.1-0.3,0.1h-1.1c-0.1,0-0.2,0-0.3-0.1
			c-0.1-0.1-0.1-0.2-0.1-0.3c0-0.1,0-0.2,0-0.4c0-0.2,0-0.3,0-0.4l-0.1-1.5l0.1-3.4l-0.1-1c0-0.5,0.2-0.8,0.5-0.8
			c0.1,0,0.2,0,0.3,0.1c0,0,0.1,0,0.2,0s0.2,0,0.3,0c0.1,0,0.2,0,0.3,0.1c0.2,0.1,0.3,0.2,0.3,0.3c0,0.2-0.1,0.3-0.3,0.4
			c-0.4-0.1-0.6-0.2-0.9-0.2c0,0.2,0,0.3,0,0.5l-0.1,1.7c0,0,0,0.1,0,0.2l0.4,0c0.4,0,0.6,0.1,0.6,0.3c0,0.1,0,0.2-0.1,0.3
			c-0.1,0.1-0.2,0.1-0.3,0.1s-0.2,0-0.3-0.1h-0.3c0,0.3,0,0.6,0,0.8l-0.1,2.1C241.7,93.4,241.8,93.6,242.1,93.6z"/>
		<path d="M244.6,89.5l0.1,3v1.3c0,0.1,0,0.2-0.1,0.3c-0.1,0.1-0.1,0.1-0.2,0.1c-0.3,0-0.4-0.2-0.4-0.7l0-4.1l0.1-2.1
			c0-0.5,0.1-0.8,0.4-0.8c0.2,0,0.3,0.1,0.4,0.4c0.1,0.5,0.3,1.2,0.5,2.1c0.3,0.9,0.4,1.6,0.5,2.1c0.1,0.2,0.2,0.6,0.3,1
			c0.1,0.5,0.2,0.8,0.3,1c0-1.7,0-3.7,0-6l0-0.3c0-0.1,0-0.2,0.1-0.3c0-0.1,0.1-0.1,0.2-0.1c0.1,0,0.2,0,0.2,0.1
			c0.1,0.1,0.2,0.2,0.2,0.4c0,1.1,0,2.4-0.1,4.1c-0.1,1.7-0.1,2.7-0.3,3.1c0,0,0,0-0.1,0s-0.1,0-0.1,0c-0.2,0-0.3,0-0.4,0
			c-0.1-0.1-0.1-0.2-0.1-0.3c0-0.1-0.1-0.2-0.1-0.3c0-0.1-0.2-0.6-0.4-1.5c-0.6-2.4-0.9-3.8-1-4.2V89.5z"/>
		<path d="M249.3,93l0-0.4c0-0.1-0.1-1-0.2-2.6c-0.1-1.6-0.1-2.6-0.2-3c-0.4,0-0.7-0.1-0.8-0.1c-0.1-0.1-0.2-0.1-0.2-0.2
			c0-0.1,0-0.1,0.1-0.2c0.1,0,0.2-0.1,0.2-0.1l1.6,0.1l0.2,0c0.2,0,0.4,0.1,0.4,0.3c0,0.1,0,0.2-0.1,0.2c-0.1,0.1-0.2,0.1-0.3,0.1
			l-0.5-0.1l0,0.1c0,0.7,0.1,1.8,0.2,3.3c0.1,1.4,0.2,2.5,0.2,3.3c0,0.1,0,0.2-0.1,0.2c-0.1,0.1-0.2,0.1-0.2,0.1h-0.3L249.3,93z"/>
		<path d="M251.2,93.6l0.6,0.1c0.1,0,0.3-0.1,0.4-0.2c0.1-0.1,0.2-0.3,0.2-0.5c0.1-0.4,0.2-0.7,0.2-1c0-0.3,0-0.6-0.1-0.8
			c-0.1-0.3-0.2-0.5-0.3-0.8c-0.1-0.2-0.3-0.5-0.4-0.7c-0.3-0.6-0.5-1.2-0.5-1.7c0-0.3,0.1-0.6,0.2-0.9c0.2-0.5,0.5-0.7,0.9-0.7
			c0.1,0,0.3,0,0.4,0.1c0.1,0.1,0.2,0.2,0.2,0.3c0,0.2-0.1,0.3-0.3,0.3c-0.1,0-0.2,0-0.2-0.1c-0.2,0-0.4,0.3-0.5,0.8
			c0,0.1,0,0.3,0,0.4s0,0.3,0.1,0.6c0.1,0.2,0.2,0.4,0.3,0.6c0.1,0.2,0.2,0.4,0.3,0.6c0.1,0.2,0.2,0.4,0.3,0.6
			c0.2,0.5,0.4,1,0.4,1.6c0,0.5-0.1,0.9-0.3,1.3c-0.1,0.2-0.2,0.4-0.4,0.5c-0.2,0.1-0.4,0.2-0.6,0.2v0c-0.1,0-0.3-0.1-0.4-0.1
			c-0.1-0.1-0.2-0.2-0.2-0.3V93.6z"/>
		<path d="M273.6,92.7c0,0.2-0.1,0.2-0.3,0.2c-0.2,0-0.3-0.1-0.5-0.2c-0.1-0.1-0.2-0.3-0.4-0.4c-0.5-0.5-1-0.9-1.6-1.2
			c-0.5-0.3-0.8-0.4-1-0.4c-0.1,0-0.2,0.1-0.2,0.1c0,0.1,0,0.2,0.1,0.4c0.1,0.2,0.1,0.4,0.1,0.5c0,0.4-0.1,0.7-0.3,0.9
			c-0.2,0.2-0.4,0.4-0.7,0.4c-0.5,0-0.9-0.4-1.1-1.1c-0.1-0.3-0.2-0.5-0.2-0.6c-0.1-0.2-0.2-0.3-0.4-0.4c0,0,0,0.1,0,0.1
			c0,0,0,0,0,0c0,0.3-0.1,0.4-0.3,0.4c-0.1,0-0.1,0-0.2-0.1c0-0.1-0.1-0.2-0.1-0.2c-0.2-0.3-0.5-0.6-1.1-0.8c-0.4-0.2-0.8-0.3-1-0.3
			c-0.2,0-0.3,0.1-0.3,0.2c0,0.1,0,0.3,0.1,0.5c0.1,0.2,0.1,0.4,0.1,0.5c0,0.3-0.1,0.6-0.3,0.8c-0.2,0.2-0.4,0.3-0.6,0.3
			c-0.2,0-0.5-0.1-0.6-0.2c-0.1-0.1-0.3-0.3-0.4-0.6c-0.2-0.4-0.3-0.6-0.4-0.6c-0.3-0.4-0.8-0.6-1.6-0.6c-0.1,0-0.2,0.1-0.2,0.2
			c0,0.1,0,0.2,0.1,0.3c0,0.1,0.1,0.2,0.1,0.3c0,0.1,0,0.1-0.1,0.1c0,0-0.1-0.1-0.4-0.2c-0.3-0.2-0.6-0.2-1-0.2
			c-0.6,0-1.4,0.4-2.3,1.3c-0.2,0.1-0.4,0.4-0.7,0.8c-0.2,0.2-0.3,0.3-0.4,0.3c-0.2,0-0.3-0.1-0.3-0.3v-0.1c2.1-2.7,5.1-4,9.1-4
			c0.9,0,1.9,0.2,2.9,0.5c1.3,0.4,2.4,0.6,3.1,0.6c0.9,0,1.4-0.1,1.7-0.4c0.1-0.1,0.2-0.3,0.5-0.8c0.1-0.3,0.3-0.4,0.5-0.4
			c0.2,0,0.3,0.1,0.3,0.3c0,0.4-0.2,0.8-0.6,1.1c-0.4,0.4-0.9,0.5-1.4,0.5c-0.1,0-0.2,0-0.5,0c-0.2,0-0.4,0-0.6,0
			c-0.1,0-0.1,0-0.1,0c0,0-0.1,0-0.1,0.1v0c0,0,0.1,0.1,0.4,0.2c0.6,0.3,0.9,0.5,1,0.6C272.9,91.8,273.6,92.4,273.6,92.7z"/>
	</g>
	<g>
		<g>
			<path d="M197.6,64.5c0.4,0.3,0.6,0.7,0.4,1.2c0,0.1-0.1,0.2-0.1,0.4c0,3.1-0.1,6.2-0.1,9.2c0,2.3-0.1,4.5-0.1,6.8
				c0,0.7,0,1.3-0.1,2c0,0.4-0.1,0.9-0.3,1.3c-0.1,0.2-0.4,0.4-0.6,0.4c-0.2,0-0.4-0.3-0.5-0.5c-0.1-0.2-0.1-0.4-0.2-0.7
				c-0.6-3.2-1.2-6.4-1.8-9.5c-0.3-1.5-0.6-3.1-0.9-4.6c-0.1-0.6-0.2-1.2-0.4-1.8c0,0.3,0,0.6,0,0.9c-0.1,4.7,0,9.4,0.2,14.1
				c0,0.5,0,0.9,0,1.4c0,0.6-0.3,0.9-0.9,0.9c-0.1,0-0.2-0.1-0.2-0.2c-0.1-0.3-0.1-0.5-0.1-0.8c0-1.5,0-2.9,0-4.4
				c0-3.1-0.1-6.3-0.1-9.4c0-1.5,0.1-3.1,0.1-4.6c0-0.3,0-0.6,0-0.8c0-0.4,0.2-0.7,0.6-0.8c0.4-0.1,0.8,0.1,0.9,0.5
				c0.3,1,0.6,1.9,0.8,2.9c0.4,2.9,1.3,5.7,1.8,8.6c0.2,0.9,0.3,1.8,0.4,2.7c0,0.1,0,0.2,0.1,0.2c0-0.1,0-0.2,0-0.4
				c0-3.8,0-7.6,0-11.4c0-1,0-2,0-3c0-0.4,0.3-0.5,0.5-0.7C197.4,64.5,197.5,64.5,197.6,64.5z"/>
			<path d="M283.8,64.5c0.4,0.3,0.6,0.7,0.4,1.2c0,0.1-0.1,0.2-0.1,0.4c-0.1,3.1-0.1,6.2-0.2,9.4c-0.1,2.3-0.2,4.6-0.2,6.9
				c0,0.7-0.1,1.3-0.1,2c0,0.4-0.1,0.8-0.2,1.1c-0.1,0.2-0.3,0.4-0.5,0.4c-0.2,0-0.4-0.2-0.5-0.4c-0.1-0.4-0.2-0.8-0.3-1.1
				c-0.4-2.3-0.7-4.7-1.1-7c-0.4-2.3-0.8-4.6-1.3-6.9c-0.1-0.6-0.2-1.2-0.4-1.8c0,0.3,0,0.6,0,0.9c0,4.5,0,9.1,0,13.6
				c0,0.4,0,0.8,0,1.1c0,0.6-0.3,0.8-0.8,0.7c-0.1,0-0.3-0.2-0.3-0.3c0-0.3,0-0.6,0-0.9c0-1.6,0.1-3.2,0.1-4.8
				c0-4.3-0.1-8.5,0.1-12.8c0-0.2,0-0.3,0-0.5c0-0.5,0.2-0.7,0.7-0.8c0.5,0,0.8,0.2,0.9,0.6c0.1,0.6,0.3,1.2,0.5,1.8
				c0.1,0.3,0.2,0.6,0.2,0.9c0.2,2.2,0.8,4.3,1.2,6.4c0.3,1.7,0.6,3.4,0.8,5.1c0,0.1,0,0.1,0.1,0.2c0-0.1,0-0.2,0-0.3
				c0.1-3.8,0.1-7.5,0.2-11.3c0-1,0-2.1,0-3.1c0-0.4,0.3-0.5,0.5-0.6C283.5,64.5,283.6,64.5,283.8,64.5z"/>
			<path d="M187.7,74.4c0.1,0.6,0.2,1.2,0.2,1.7c0.1,3,0.1,5.9,0.2,8.9c0,0.4,0,0.9-0.3,1.2c-0.3,0.4-0.7,0.4-0.9-0.1
				c-0.1-0.3-0.2-0.6-0.2-0.8c0-1.5,0-3,0-4.4c0-0.1-0.2-0.4-0.3-0.4c-0.6-0.2-1.2-0.3-1.8-0.4c-0.3,0-0.3,0.1-0.3,0.3
				c-0.1,0.9-0.2,1.9-0.3,2.8c-0.1,1-0.2,2-0.4,3c0,0.2-0.2,0.4-0.3,0.4c-0.2,0-0.5-0.1-0.6-0.2c-0.2-0.3-0.3-0.6-0.2-1
				c0.2-1.4,0.4-2.7,0.6-4.1c0.5-4.6,1.1-9.3,2-13.8c0.1-0.7,0.3-1.3,0.6-1.9c0.1-0.3,0.3-0.6,0.7-0.6c0.4,0.1,0.6,0.4,0.7,0.7
				c0.2,1.4,0.3,2.8,0.4,4.3c0.1,1.2,0.2,2.3,0.3,3.5C187.9,73.8,187.8,74.1,187.7,74.4C187.8,74.4,187.8,74.4,187.7,74.4z
				 M186.2,68.5c0,0-0.1,0-0.1,0c0,0.2-0.1,0.4-0.1,0.6c-0.3,2-0.5,4-0.8,6c-0.1,1-0.3,2-0.5,2.9c-0.1,0.3,0.1,0.5,0.4,0.5
				c0.4,0,0.9,0.1,1.3,0.1c0.3,0,0.5-0.1,0.5-0.5c-0.1-1.7-0.1-3.4-0.2-5.1C186.5,71.6,186.3,70.1,186.2,68.5z"/>
			<path d="M175.7,73.2c0.7-0.1,1.3-0.1,1.9-0.2c0-0.1,0-0.3,0-0.4c-0.1-2.3-0.1-4.5-0.2-6.8c0-0.2,0-0.3,0-0.5
				c0-0.1,0.1-0.4,0.1-0.4c0.2,0,0.5,0,0.6,0.1c0.2,0.2,0.4,0.5,0.4,0.8c0.1,1.1,0.1,2.1,0.1,3.2c0.1,5.6,0.2,11.3,0.3,16.9
				c0,0.7,0.1,1.4-0.1,2.1c-0.1,0.2-0.1,0.4-0.2,0.5c-0.1,0.1-0.2,0.3-0.3,0.3c-0.1,0-0.3-0.2-0.3-0.3c-0.1-0.2-0.1-0.4-0.1-0.6
				c0-0.5,0-1,0-1.5c0-3.9-0.1-7.7-0.1-11.6c0-0.1,0-0.2,0-0.4c-0.5,0-0.9,0-1.4,0.1c-0.3,0-0.4,0.2-0.4,0.5
				c0.1,1.9,0.1,3.8,0.2,5.7c0.1,2.1,0.1,4.2,0.1,6.3c0,0.3,0,0.6-0.1,0.8c-0.1,0.2-0.3,0.5-0.4,0.5c-0.3,0.1-0.4-0.3-0.5-0.5
				c-0.1-0.3-0.1-0.7-0.1-1.1c0-2.1,0-4.1-0.1-6.2c-0.1-4.2-0.2-8.4-0.4-12.5c0-0.9,0-1.8,0-2.7c0-0.2,0.3-0.6,0.6-0.6
				c0.2,0,0.5,0.4,0.5,0.6c0,1.8,0,3.7,0.1,5.5c0,0.5,0,1,0,1.5C175.7,72.7,175.7,73,175.7,73.2z"/>
			<path d="M207.3,75c-0.1,1.2-0.1,2.3-0.2,3.5c-0.1,1.2-0.2,2.5-0.4,3.7c-0.1,0.6-0.4,1.2-0.7,1.9c-0.1,0.2-0.3,0.5-0.5,0.7
				c-0.5,0.6-1.2,0.6-1.6,0c-0.3-0.4-0.6-0.9-0.8-1.3c-0.6-1.4-0.8-3-1-4.5c-0.4-3.3-0.5-6.6-0.2-9.8c0.1-0.8,0.1-1.6,0.2-2.4
				c0-0.2,0.1-0.4,0.2-0.7c0.2-0.7,0.7-1.2,1.5-1.3c0.8-0.1,1.5,0.1,2,0.8c0.7,0.8,0.9,1.8,1,2.8C207,70.6,207.2,72.8,207.3,75
				C207.4,75,207.3,75,207.3,75z M206.1,74.7C206.1,74.7,206.2,74.7,206.1,74.7c0-1.8-0.1-3.7-0.3-5.5c-0.1-0.9-0.3-1.8-0.7-2.7
				c-0.2-0.4-0.4-0.8-0.9-0.7c-0.5,0-0.6,0.5-0.7,0.8c-0.2,0.9-0.4,1.9-0.5,2.9c-0.2,2.9-0.1,5.8,0.3,8.6c0.2,1.4,0.3,2.8,0.8,4.2
				c0.1,0.3,0.3,0.6,0.4,0.8c0.2,0.3,0.5,0.3,0.6,0c0.2-0.3,0.3-0.6,0.3-1C206,79.7,206.1,77.2,206.1,74.7z"/>
			<path d="M292.6,86.5c-0.1,0.1-0.2,0.3-0.3,0.4c-0.2,0.3-0.5,0.3-0.8,0.4c-1.3,0.2-1.8-0.8-2.3-1.6c-0.7-1-0.9-2.2-1-3.5
				c-0.3-4.1-0.4-8.3-0.1-12.5c0.1-1.2,0.3-2.4,0.9-3.5c0.5-0.9,1.3-1.5,2.4-1.5c0.2,0,0.4,0,0.6,0.1c0.3,0.1,0.4,0.4,0.4,0.7
				c-0.1,0.3-0.3,0.4-0.6,0.4c-0.2,0-0.5-0.1-0.7-0.1c-0.6,0.1-0.9,0.5-1,1c-0.3,0.9-0.6,1.8-0.6,2.7c-0.2,3-0.3,6-0.3,9
				c0,1.8,0.1,3.6,0.9,5.4c0.2,0.5,0.6,0.9,1.1,1.1c0.4,0.1,0.7,0,1-0.3c0.4-0.5,0.7-1,0.6-1.6c0-1-0.1-1.9-0.1-2.9
				c0-0.4-0.2-0.5-0.6-0.5c-0.6,0.1-0.9-0.1-1-0.7c-0.1-0.6,0.1-1,0.7-1.1c0.3-0.1,0.6-0.1,0.9-0.2c0.5-0.1,0.9,0.2,1,0.7
				c0,0.2,0.1,0.4,0.1,0.5c0.1,2.3,0.1,4.7,0.2,7c0,0.3,0,0.6-0.1,0.9c-0.1,0.2-0.3,0.4-0.4,0.4c-0.2,0-0.4-0.2-0.5-0.3
				C292.7,86.8,292.7,86.7,292.6,86.5z"/>
			<path d="M264.2,73c0,0.1,0,0.2,0,0.3c0,2.9-0.1,5.7-0.1,8.6c0,0.4,0,0.7,0,1.1c0,0.5-0.3,0.8-0.6,0.8c-0.4,0-0.6-0.4-0.6-0.9
				c0.1-2.6,0.2-5.2,0.2-7.8c0.1-3,0.1-6,0.1-9.1c0-0.2,0-0.3,0-0.5c0-0.5,0.1-0.6,0.6-0.7c1-0.1,1.8,0.5,2.2,1.5
				c0.5,1.5,0.6,2.9,0,4.4c-0.5,1.1-0.5,2.2-0.3,3.4c0.6,2.8,1.1,5.6,1.7,8.4c0.1,0.4,0,0.9-0.1,1.3c-0.1,0.4-0.5,0.5-0.8,0.1
				c-0.2-0.2-0.3-0.5-0.4-0.8c-0.1-1.6-0.5-3.2-0.8-4.7c-0.3-1.6-0.5-3.2-0.8-4.8C264.4,73.4,264.3,73.2,264.2,73
				C264.3,73,264.2,73,264.2,73z M264.2,66.1c0,1.8,0,3.4,0,5.1C265.3,70.2,265.4,67,264.2,66.1z"/>
			<path d="M228.5,72.9c0,0.1,0,0.1,0,0.2c0,3.1,0,6.1,0,9.2c0,0.2,0,0.5-0.1,0.6c-0.1,0.2-0.3,0.4-0.5,0.4c-0.2,0-0.4-0.2-0.5-0.4
				c-0.1-0.1-0.1-0.3-0.1-0.4c0-2.7,0.1-5.4,0.1-8.1c0-2.8,0-5.5,0-8.3c0-0.2,0-0.3,0-0.5c0-0.5,0.1-0.7,0.6-0.7
				c1,0,1.8,0.5,2.1,1.5c0.5,1.4,0.6,2.8,0,4.3c0,0.1-0.1,0.2-0.1,0.3c-0.5,0.9-0.4,1.8-0.2,2.8c0.6,2.6,1.2,5.3,1.8,7.9
				c0.1,0.4,0,0.8-0.1,1.2c-0.1,0.4-0.5,0.5-0.8,0.1c-0.2-0.2-0.3-0.4-0.3-0.7c-0.3-1.3-0.5-2.6-0.8-4c-0.3-1.7-0.6-3.4-0.9-5.1
				C228.6,73.2,228.6,73,228.5,72.9C228.5,72.9,228.5,72.9,228.5,72.9z M228.4,71.2c1.1-1,1.2-4.6,0-5
				C228.4,67.9,228.4,69.5,228.4,71.2z"/>
			<path d="M213.9,77.4c0-0.2,0-0.5,0.1-0.7c0.4-3.5,0.7-7.1,1.1-10.6c0-0.3-0.1-0.8,0.4-0.9c0.2-0.1,0.5-0.2,0.6-0.1
				c0.2,0.1,0.4,0.3,0.4,0.7c-0.2,1.3-0.4,2.6-0.6,4c-0.4,4.4-0.8,8.8-1.2,13.2c0,0.3-0.1,0.5-0.2,0.8c-0.1,0.2-0.3,0.4-0.6,0.4
				c-0.3-0.1-0.4-0.2-0.5-0.5c-0.4-3.1-0.8-6.1-1.2-9.2c-0.4-2.6-0.8-5.2-1.2-7.8c0-0.2-0.1-0.5-0.2-0.7c-0.1-0.3-0.1-0.5,0.2-0.7
				c0.3-0.2,0.7-0.1,0.8,0.2c0.1,0.2,0.2,0.4,0.2,0.7c0.3,2.1,0.6,4.3,0.9,6.4c0.2,1.7,0.5,3.4,0.7,5.1
				C213.8,77.4,213.9,77.4,213.9,77.4z"/>
			<path d="M300.7,79.4c0.1-2.1-0.7-4.6-1.6-7c-0.5-1.3-0.9-2.6-1-3.9c-0.1-1.2,0.1-2.3,0.9-3.2c0.7-0.7,1.6-0.8,2.3-0.2
				c0.3,0.3,0.4,0.5,0.1,0.8c-0.1,0.1-0.5,0.1-0.7,0.1c-0.5-0.1-0.7-0.1-1,0.3c-0.2,0.3-0.4,0.7-0.4,1.1c-0.1,1.1,0.1,2.1,0.4,3.2
				c0.3,0.8,0.5,1.7,0.9,2.4c0.7,1.5,0.9,3.1,1.2,4.8c0.4,2.8,0.1,5.5-0.7,8.2c-0.2,0.8-0.6,1.6-1.1,2.3c-0.6,0.9-1.7,0.8-2.3,0
				c-0.4-0.5-0.5-1.2-0.4-1.8c0.1-0.6,0.4-0.7,0.9-0.3c0.2,0.1,0.3,0.3,0.5,0.4c0.3,0.2,0.5,0.2,0.7-0.1c0.2-0.4,0.4-0.8,0.6-1.3
				C300.4,83.4,300.7,81.7,300.7,79.4z"/>
			<path d="M221.3,66.4c0,2,0,4,0,6c0.2,0,0.5-0.1,0.7-0.1c0.3-0.1,0.6,0,0.7,0.3c0.1,0.2,0.1,0.5,0.1,0.8c-0.1,0.3-0.3,0.4-0.6,0.3
				c-0.9,0-0.8,0-0.8,0.9c0,2,0,4,0,6.1c0,0.4,0.1,0.7,0.1,1.1c0.3,0,0.5-0.1,0.8-0.1c0.3,0,0.6,0,0.8,0c0.5,0.1,0.7,0.6,0.4,1.1
				c-0.2,0.4-0.6,0.6-1,0.7c-0.6,0.1-1.1,0.1-1.7,0.1c-0.6,0-0.9-0.4-0.9-1c0.3-3.2,0.2-6.4,0.1-9.6c0-1.4,0.1-2.8,0.1-4.2
				c0-0.8-0.1-1.6-0.2-2.4c-0.1-0.6,0.3-1.2,0.9-1.2c0.5,0,1-0.1,1.5-0.1c0.3,0,0.5,0.2,0.5,0.6c0,0.4-0.2,0.6-0.5,0.7
				C222.1,66.4,221.7,66.3,221.3,66.4z"/>
			<path d="M250.3,78.1c0-1.8-0.6-3.4-1.3-5c-0.6-1.2-1.2-2.5-1.4-3.8c-0.2-1-0.2-1.9,0.1-2.9c0.2-0.5,0.5-1,1-1.3
				c0.6-0.5,1.3-0.5,2-0.1c0.2,0.2,0.5,0.3,0.3,0.7c-0.1,0.4-0.4,0.3-0.7,0.3c-0.1,0-0.1,0-0.2-0.1c-0.3-0.2-0.6,0-0.8,0.2
				c-0.4,0.5-0.6,1-0.6,1.6c0,1.3,0.4,2.5,0.9,3.6c0.2,0.5,0.5,1,0.7,1.5c0.9,1.8,1.3,3.8,1.3,5.9c0,1.3-0.3,2.5-1,3.6
				c-0.2,0.4-0.5,0.7-0.9,1c-0.6,0.5-1.3,0.4-1.9,0.2c-0.5-0.2-0.8-0.7-0.7-1.1c0.1-0.4,0.3-0.6,0.7-0.5c0.2,0.1,0.3,0.2,0.5,0.2
				c0.5,0.2,0.7,0.2,1-0.2c0.2-0.3,0.4-0.5,0.4-0.8c0.2-0.5,0.3-1,0.4-1.5C250.2,79.1,250.3,78.6,250.3,78.1z"/>
			<path d="M271.8,66.4c-0.2,0-0.3,0-0.4,0c-0.3,0-0.5,0-0.6-0.3c-0.1-0.3-0.1-0.5,0.2-0.7c0.1-0.1,0.2-0.1,0.3-0.1
				c0.7-0.1,1.3-0.3,2-0.4c0.4-0.1,0.7,0.2,0.7,0.5c0,0.4-0.2,0.7-0.7,0.7c-0.5,0-0.5,0-0.5,0.5c0,2.1,0.1,4.3,0.2,6.4
				c0.1,2.9,0.1,5.9,0.1,8.8c0,0.1,0,0.2,0,0.3c0.1,0,0.1,0.1,0.1,0.1c0.8,0.1,1.2,0.5,1.1,1.3c0,0.5-0.5,0.8-1,0.6
				c-0.2-0.1-0.4-0.1-0.6,0.1c-0.1,0.1-0.4,0-0.6,0c-0.2,0-0.4-0.2-0.6-0.2c-0.4-0.1-0.7-0.3-0.8-0.7c-0.2-0.6,0.1-1.1,0.7-1
				c0.5,0,0.6,0,0.6-0.5c0-3-0.1-6-0.1-8.9c0-2,0-3.9-0.1-5.9C271.8,66.8,271.8,66.6,271.8,66.4z"/>
			<path d="M240.3,72.8c0,0.5,0,0.9,0,1.3c0,0.1-0.1,0.2-0.2,0.3c-0.1-0.1-0.3-0.2-0.3-0.3c-0.1-0.3-0.1-0.7-0.1-1
				c0-0.1,0-0.3,0-0.5c-0.2,0-0.4,0-0.7,0c0,0.5,0,0.9,0,1.3c0,0.2-0.1,0.3-0.2,0.5c-0.1-0.1-0.3-0.3-0.4-0.4
				c-0.1-0.4-0.1-0.8-0.1-1.2c-0.9,0.3-1,1.4-0.3,2c0.2,0.2,0.5,0.3,0.8,0.4c0.7,0.3,1.4,0.5,2.1,0.8c0.4,0.2,0.8,0.4,1.2,0.6
				c0.9,0.7,1.1,1.9,0.3,2.8c-0.7,0.8-1.6,1.1-2.5,1.2c-0.9,0.1-1.9-0.1-2.7-0.5c-0.7-0.4-1.3-0.9-1.3-1.8c0-0.9,0.5-1.6,1.2-2.1
				c0.1-0.1,0.2,0,0.4,0c0,0.1,0,0.3,0,0.3c-0.1,0.2-0.3,0.4-0.4,0.6c-0.6,0.8-0.4,1.7,0.5,2.1c1.3,0.7,2.6,0.8,3.9-0.1
				c0.4-0.3,0.7-0.7,0.7-1.2c-0.1-0.5-0.4-0.9-0.9-1.1c-0.8-0.3-1.6-0.6-2.4-0.9c-0.3-0.1-0.6-0.3-0.9-0.5c-0.7-0.4-1.1-1-1-1.8
				c0.1-0.8,0.5-1.4,1.3-1.7c0.1,0,0.1-0.1,0.2-0.1c0-0.2,0-0.4,0-0.6c0-1.2-0.1-2.5-0.1-3.7c0-0.1,0-0.3,0-0.4
				c0.1-0.1,0.3-0.2,0.4-0.3c0.1,0.1,0.2,0.3,0.2,0.4c0,1.4,0,2.7,0.1,4.1c0,0.2,0,0.3,0,0.5c0.2,0,0.4,0,0.7,0c0-0.1,0-0.3,0-0.4
				c0-1.3,0-2.6-0.1-3.9c0-0.1,0-0.1,0-0.2c0-0.3,0.1-0.5,0.4-0.5c0.3,0,0.3,0.3,0.3,0.5c0,1.4,0,2.7,0,4.1c0,0.3,0.1,0.5,0.4,0.6
				c0.8,0.4,1.4,1.4,1.2,2.2c-0.1,0.4-0.3,0.8-0.8,1c-0.1,0-0.3,0-0.4,0c0-0.1,0.1-0.3,0.1-0.4C241.5,74.1,241.3,73.2,240.3,72.8z"
				/>
			<path d="M258,66.2c0,0.5,0.1,1,0.1,1.5c0,1.3,0,2.6,0,3.9c0,1.2,0.2,2.4,0.2,3.5c0,0.4,0,0.9,0,1.3c0,1.8,0,3.7,0,5.5
				c0,0.3,0,0.7-0.1,1c-0.1,0.2-0.3,0.4-0.5,0.5c-0.3,0.1-0.5-0.2-0.5-0.5c-0.1-0.4-0.2-0.8-0.2-1.1c0.3-3.5,0.2-7,0-10.5
				c-0.1-1.4,0-2.8,0-4.2c0-0.8,0-0.8-0.8-0.7c-0.2,0-0.4,0-0.5,0c-0.3-0.1-0.5-0.2-0.5-0.6c0-0.3,0.2-0.4,0.4-0.5
				c0.4-0.1,0.9-0.2,1.3-0.3c0.6-0.1,1.2-0.1,1.9-0.2c0.2,0,0.4,0,0.5,0.1c0.2,0.1,0.4,0.4,0.3,0.6c-0.1,0.2-0.3,0.4-0.5,0.4
				C258.7,66.2,258.3,66.2,258,66.2z"/>
			<path d="M238.3,69.5c-0.2,0.2-0.4,0.3-0.5,0.3c-0.1,0-0.3-0.2-0.3-0.3c0-0.2,0.2-0.3,0.4-0.4C237.9,69.1,238.1,69.3,238.3,69.5z"
				/>
			<path d="M237.7,68.9c-0.2-0.2-0.3-0.4-0.3-0.5c0-0.1,0.2-0.2,0.3-0.4c0.1,0.1,0.3,0.3,0.3,0.4C238.1,68.6,237.9,68.7,237.7,68.9z
				"/>
			<path d="M240.8,70c-0.2-0.2-0.4-0.4-0.4-0.5c0-0.1,0.2-0.3,0.3-0.4c0.1,0.1,0.3,0.2,0.3,0.3C241.1,69.6,241,69.8,240.8,70z"/>
			<path d="M237.7,67.6c-0.1-0.1-0.3-0.3-0.2-0.4c0-0.1,0.2-0.3,0.3-0.4c0.1,0.1,0.3,0.2,0.3,0.4c0,0.1-0.1,0.3-0.2,0.4
				C237.8,67.6,237.7,67.6,237.7,67.6z"/>
			<path d="M240.8,67.9c0.2,0.2,0.3,0.4,0.3,0.5c0,0.1-0.2,0.2-0.3,0.4c-0.1-0.1-0.3-0.2-0.3-0.4C240.5,68.3,240.6,68.1,240.8,67.9z
				"/>
			<path d="M240.8,66.7c0.1,0.2,0.3,0.4,0.3,0.5c0,0.1-0.2,0.2-0.4,0.4c-0.1-0.1-0.3-0.3-0.3-0.4C240.5,67.1,240.7,66.9,240.8,66.7z
				"/>
		</g>
	</g>
</g>
</svg>
